<svg width="502" height="445" viewBox="0 0 502 445" fill="none" xmlns="http://www.w3.org/2000/svg">
<path opacity="0.02" d="M54.7192 345.971C33.0084 377.814 5.6769 372.814 -5.27499 366.334L-175.741 278.054L133.045 -300.526L303.511 -212.246C315.139 -207.033 334.815 -187.689 320.494 -152.019C302.593 -107.431 319.367 -100.2 329.004 -86.9601C338.641 -73.7207 346.25 -56.6798 316.584 -25.9478C286.918 4.78426 264.586 38.3438 274.815 78.0908C282.997 109.888 274.074 131.946 269.973 139.631C265.871 147.316 252.484 167.062 221.254 178.449C182.216 192.683 166.812 229.83 157.93 271.325C149.049 312.821 130.485 316.308 113.95 315.993C97.4143 315.679 81.8578 306.167 54.7192 345.971Z" fill="black"/>
<path d="M17.8773 314.164C-6.88063 336.996 -29.0744 327.465 -37.0766 319.845L-164.135 211.934L213.003 -219.481L340.062 -111.569C348.89 -104.894 361.734 -84.6679 342.484 -57.1582C318.422 -22.7712 331.214 -13.3884 336.756 -0.285652C342.297 12.8171 345.361 28.7544 314.075 49.1038C282.789 69.4533 257.162 93.6215 257.929 129.34C258.543 157.915 246.582 174.913 241.573 180.644C236.563 186.374 221.275 200.546 192.512 204.172C156.559 208.703 136.096 237.257 120.302 270.764C104.507 304.27 88.063 303.639 74.0966 300.174C60.1303 296.709 48.8247 285.625 17.8773 314.164Z" fill="black"/>
<path d="M17.8773 314.164C-6.88063 336.996 -29.0744 327.465 -37.0766 319.845L-164.135 211.934L213.003 -219.481L340.062 -111.569C348.89 -104.894 361.734 -84.6679 342.484 -57.1582C318.422 -22.7712 331.214 -13.3884 336.756 -0.285652C342.297 12.8171 345.361 28.7544 314.075 49.1038C282.789 69.4533 257.162 93.6215 257.929 129.34C258.543 157.915 246.582 174.913 241.573 180.644C236.563 186.374 221.275 200.546 192.512 204.172C156.559 208.703 136.096 237.257 120.302 270.764C104.507 304.27 88.063 303.639 74.0966 300.174C60.1303 296.709 48.8247 285.625 17.8773 314.164Z" fill="url(#paint0_linear_4211_3839)"/>
<path d="M-172.243 291.442C-204.597 301.397 -220.366 283.294 -224.207 272.998L-290.95 121.297L238.793 -105.692L305.536 46.0099C310.537 55.8085 313.172 79.5388 283.711 96.0705C246.885 116.735 254.259 130.673 253.466 144.854C252.672 159.036 248.398 174.708 211.264 179.628C174.13 184.548 140.404 195.335 125.337 227.845C113.283 253.853 95.0195 264.04 87.983 267.055C80.9464 270.07 60.9351 276.284 33.4498 267.218C-0.90677 255.885 -31.9198 272.838 -60.9165 296.254C-89.9131 319.67 -104.434 312.051 -115.475 302.941C-126.516 293.831 -131.801 278.997 -172.243 291.442Z" fill="black"/>
<path d="M-172.243 291.442C-204.597 301.397 -220.366 283.294 -224.207 272.998L-290.95 121.297L238.793 -105.692L305.536 46.0099C310.537 55.8085 313.172 79.5388 283.711 96.0705C246.885 116.735 254.259 130.673 253.466 144.854C252.672 159.036 248.398 174.708 211.264 179.628C174.13 184.548 140.404 195.335 125.337 227.845C113.283 253.853 95.0195 264.04 87.983 267.055C80.9464 270.07 60.9351 276.284 33.4498 267.218C-0.90677 255.885 -31.9198 272.838 -60.9165 296.254C-89.9131 319.67 -104.434 312.051 -115.475 302.941C-126.516 293.831 -131.801 278.997 -172.243 291.442Z" fill="url(#paint1_linear_4211_3839)"/>
<path d="M-28.092 225.316C-58.5265 240.031 -76.9215 224.522 -82.3147 214.928L-171.82 75.1017L316.563 -229.054L363.456 -189.158C369.919 -180.23 376.206 -157.18 349.651 -136.404C316.458 -110.433 325.909 -97.7729 327.325 -83.6416C328.741 -69.5103 355.996 28.3389 331.048 57.1117C306.693 85.2006 266.02 83.2142 256.171 117.608C248.292 145.123 231.821 157.942 225.334 161.982C218.847 166.022 200.031 175.179 171.458 170.366C135.741 164.349 107.718 185.776 82.6908 213.285C57.6633 240.793 42.1284 235.455 29.8023 228.118C17.4762 220.781 9.95111 206.922 -28.092 225.316Z" fill="black"/>
<path d="M-28.092 225.316C-58.5265 240.031 -76.9215 224.522 -82.3147 214.928L-171.82 75.1017L316.563 -229.054L363.456 -189.158C369.919 -180.23 376.206 -157.18 349.651 -136.404C316.458 -110.433 325.909 -97.7729 327.325 -83.6416C328.741 -69.5103 355.996 28.3389 331.048 57.1117C306.693 85.2006 266.02 83.2142 256.171 117.608C248.292 145.123 231.821 157.942 225.334 161.982C218.847 166.022 200.031 175.179 171.458 170.366C135.741 164.349 107.718 185.776 82.6908 213.285C57.6633 240.793 42.1284 235.455 29.8023 228.118C17.4762 220.781 9.95111 206.922 -28.092 225.316Z" fill="url(#paint2_linear_4211_3839)"/>
<defs>
<linearGradient id="paint0_linear_4211_3839" x1="-98.0379" y1="526.343" x2="287.631" y2="-0.43435" gradientUnits="userSpaceOnUse">
<stop stop-color="#2E97EE"/>
<stop offset="0.505208" stop-color="#78C0FC"/>
<stop offset="1" stop-color="#78C0FC"/>
</linearGradient>
<linearGradient id="paint1_linear_4211_3839" x1="-198.619" y1="262.626" x2="439.056" y2="61.4093" gradientUnits="userSpaceOnUse">
<stop stop-color="#3C8ACA"/>
<stop offset="0.0001" stop-color="#78C0FC"/>
<stop offset="0.505208" stop-color="#2E97EE"/>
<stop offset="1" stop-color="#78C0FC"/>
</linearGradient>
<linearGradient id="paint2_linear_4211_3839" x1="-164.002" y1="87.3845" x2="532.242" y2="-14.9641" gradientUnits="userSpaceOnUse">
<stop stop-color="#2E97EE"/>
<stop offset="0.505208" stop-color="#2E97EE"/>
<stop offset="1" stop-color="#ACE6FF"/>
</linearGradient>
</defs>
</svg>
