<svg width="531" height="513" viewBox="0 0 531 513" fill="none" xmlns="http://www.w3.org/2000/svg">
<path d="M-137.769 207.614C-174.428 195.354 -192.93 215.584 -197.599 227.231L-277.985 398.563L320.474 672.334L400.86 501.003C406.84 489.955 410.505 462.938 377.331 443.252C335.863 418.643 344.666 402.936 344.152 386.725C343.639 370.515 339.193 352.505 296.938 345.862C254.683 339.218 216.481 325.971 200.18 288.442C187.138 258.419 166.571 246.285 158.622 242.649C150.673 239.012 128 231.366 96.3734 240.955C56.8397 252.941 21.9051 232.731 -10.549 205.198C-43.003 177.665 -59.7906 185.961 -72.6461 196.056C-85.5016 206.151 -91.945 222.938 -137.769 207.614Z" fill="black"/>
<path d="M-137.769 207.614C-174.428 195.354 -192.93 215.584 -197.599 227.231L-277.985 398.563L320.474 672.334L400.86 501.003C406.84 489.955 410.505 462.938 377.331 443.252C335.863 418.643 344.666 402.936 344.152 386.725C343.639 370.515 339.193 352.505 296.938 345.862C254.683 339.218 216.481 325.971 200.18 288.442C187.138 258.419 166.571 246.285 158.622 242.649C150.673 239.012 128 231.366 96.3734 240.955C56.8397 252.941 21.9051 232.731 -10.549 205.198C-43.003 177.665 -59.7906 185.961 -72.6461 196.056C-85.5016 206.151 -91.945 222.938 -137.769 207.614Z" fill="url(#paint0_linear_11_122)"/>
<path d="M352.168 493.292C380.212 520.658 370.179 546.168 361.657 555.502L241.671 703.279L-283.563 289.125L-163.577 141.347C-156.205 131.107 -133.151 115.865 -99.9057 136.825C-58.3493 163.026 -48.0063 148.196 -32.9288 141.477C-17.8512 134.759 0.677369 130.761 26.1467 165.621C51.6161 200.48 81.2717 228.789 123.112 226.755C156.584 225.128 177.13 238.154 184.106 243.655C191.083 249.156 208.486 266.053 214.217 298.593C221.38 339.267 255.912 361.57 296.011 378.412C336.109 395.254 336.216 413.945 332.872 429.916C329.527 445.886 317.113 459.083 352.168 493.292Z" fill="black"/>
<path d="M352.168 493.292C380.212 520.658 370.179 546.168 361.657 555.502L241.671 703.279L-283.563 289.125L-163.577 141.347C-156.205 131.107 -133.151 115.865 -99.9057 136.825C-58.3493 163.026 -48.0063 148.196 -32.9288 141.477C-17.8512 134.759 0.677369 130.761 26.1467 165.621C51.6161 200.48 81.2717 228.789 123.112 226.755C156.584 225.128 177.13 238.154 184.106 243.655C191.083 249.156 208.486 266.053 214.217 298.593C221.38 339.267 255.912 361.57 296.011 378.412C336.109 395.254 336.216 413.945 332.872 429.916C329.527 445.886 317.113 459.083 352.168 493.292Z" fill="url(#paint1_linear_11_122)"/>
<path d="M-107.562 178.765C-140.338 158.373 -163.102 173.756 -170.388 183.997L-288.944 331.931L228.782 736.407L286.857 696.782C295.276 687.428 305.204 662.016 277.568 635.211C243.022 601.704 255.285 588.473 258.604 572.599C261.922 556.724 304.714 448.919 279.869 413.229C255.614 378.387 209.191 375.719 202.171 335.473C196.556 303.277 179.405 286.728 172.528 281.355C165.651 275.982 145.395 263.308 112.369 265.314C71.0855 267.823 41.8596 240.102 16.7717 205.837C-8.31624 171.572 -26.6018 175.753 -41.4858 182.591C-56.3698 189.43 -66.5919 204.256 -107.562 178.765Z" fill="black"/>
<path d="M-107.562 178.765C-140.338 158.373 -163.102 173.756 -170.388 183.997L-288.944 331.931L228.782 736.407L286.857 696.782C295.276 687.428 305.204 662.016 277.568 635.211C243.022 601.704 255.285 588.473 258.604 572.599C261.922 556.724 304.714 448.919 279.869 413.229C255.614 378.387 209.191 375.719 202.171 335.473C196.556 303.277 179.405 286.728 172.528 281.355C165.651 275.982 145.395 263.308 112.369 265.314C71.0855 267.823 41.8596 240.102 16.7717 205.837C-8.31624 171.572 -26.6018 175.753 -41.4858 182.591C-56.3698 189.43 -66.5919 204.256 -107.562 178.765Z" fill="url(#paint2_linear_11_122)"/>
<path d="M-211.653 268.199C-250.033 264.065 -263.858 287.808 -265.972 300.196L-308.515 484.94L333.502 624.425L368.605 563.51C372.125 551.427 370.032 524.226 333.496 512.083C287.826 496.905 293.126 479.661 289.221 463.92C285.316 448.18 277.04 332.488 239.16 311.13C202.18 290.279 159.205 308.038 135.403 274.835C116.361 248.273 93.7253 240.815 85.1974 238.962C76.6695 237.109 52.9191 234.49 24.0414 250.641C-12.0556 270.83 -50.4208 258.553 -87.9007 238.584C-125.381 218.615 -140.036 230.323 -150.473 242.947C-160.909 255.572 -163.678 273.366 -211.653 268.199Z" fill="black"/>
<path d="M-211.653 268.199C-250.033 264.065 -263.858 287.808 -265.972 300.196L-308.515 484.94L333.502 624.425L368.605 563.51C372.125 551.427 370.032 524.226 333.496 512.083C287.826 496.905 293.126 479.661 289.221 463.92C285.316 448.18 277.04 332.488 239.16 311.13C202.18 290.279 159.205 308.038 135.403 274.835C116.361 248.273 93.7253 240.815 85.1974 238.962C76.6695 237.109 52.9191 234.49 24.0414 250.641C-12.0556 270.83 -50.4208 258.553 -87.9007 238.584C-125.381 218.615 -140.036 230.323 -150.473 242.947C-160.909 255.572 -163.678 273.366 -211.653 268.199Z" fill="url(#paint3_linear_11_122)"/>
<defs>
<linearGradient id="paint0_linear_11_122" x1="-168.675" y1="239.78" x2="553.708" y2="487.116" gradientUnits="userSpaceOnUse">
<stop stop-color="#9FFF7D"/>
<stop offset="0.471875" stop-color="#69FB10"/>
<stop offset="1" stop-color="#94ED5E"/>
</linearGradient>
<linearGradient id="paint1_linear_11_122" x1="606.908" y1="617.992" x2="-19.7831" y2="181.755" gradientUnits="userSpaceOnUse">
<stop stop-color="#41FA00"/>
<stop offset="0.505208" stop-color="#86FF72"/>
<stop offset="1" stop-color="#A4F057"/>
</linearGradient>
<linearGradient id="paint2_linear_11_122" x1="-278.58" y1="318.93" x2="499.594" y2="519.422" gradientUnits="userSpaceOnUse">
<stop stop-color="#7AFF9F"/>
<stop offset="0.505208" stop-color="#9EFFB8"/>
<stop offset="1" stop-color="#FFFFCC"/>
</linearGradient>
<linearGradient id="paint3_linear_11_122" x1="-304.825" y1="468.729" x2="483.201" y2="311.357" gradientUnits="userSpaceOnUse">
<stop stop-color="#91DCD1"/>
<stop offset="0.505208" stop-color="#B9E8DB"/>
<stop offset="1" stop-color="#DAF1DE"/>
</linearGradient>
</defs>
</svg>
