<svg width="584" height="466" viewBox="0 0 584 466" fill="none" xmlns="http://www.w3.org/2000/svg">
<path d="M174.589 452.655C142.033 473.495 146.165 500.597 152.301 511.542L235.205 681.67L823.996 387.682L741.092 217.554C736.246 205.965 717.517 186.152 681.367 199.617C636.18 216.448 629.479 199.735 616.538 189.959C603.597 180.182 586.788 172.337 555.091 201.059C523.394 229.78 489.101 251.201 449.655 240.332C418.098 231.636 395.741 240.029 387.92 243.934C380.1 247.839 359.915 260.687 347.525 291.326C332.039 329.624 294.376 344.13 252.571 352.109C210.766 360.088 206.685 378.363 206.473 394.707C206.261 411.051 215.283 426.605 174.589 452.655Z" fill="black"/>
<path d="M174.589 452.655C142.033 473.495 146.165 500.597 152.301 511.542L235.205 681.67L823.996 387.682L741.092 217.554C736.246 205.965 717.517 186.152 681.367 199.617C636.18 216.448 629.479 199.735 616.538 189.959C603.597 180.182 586.788 172.337 555.091 201.059C523.394 229.78 489.101 251.201 449.655 240.332C418.098 231.636 395.741 240.029 387.92 243.934C380.1 247.839 359.915 260.687 347.525 291.326C332.039 329.624 294.376 344.13 252.571 352.109C210.766 360.088 206.685 378.363 206.473 394.707C206.261 411.051 215.283 426.605 174.589 452.655Z" fill="url(#paint0_linear_11_127)"/>
<path d="M704.523 250.616C743.43 245.966 756.989 269.789 758.905 282.282L798.616 468.449L146.516 617.312L106.805 431.145C103.461 418.978 106.069 391.465 143.255 378.744C189.737 362.843 184.686 345.483 188.921 329.528C193.156 313.574 201.676 296.642 244.799 298.699C287.923 300.757 328.575 295.444 353.257 261.598C373.002 234.521 396.04 226.705 404.702 224.728C413.364 222.751 437.441 219.811 466.368 235.777C502.526 255.734 541.565 242.855 579.847 222.214C618.128 201.573 632.745 213.224 643.077 225.852C653.409 238.481 655.889 256.429 704.523 250.616Z" fill="black"/>
<path d="M704.523 250.616C743.43 245.966 756.989 269.789 758.905 282.282L798.616 468.449L146.516 617.312L106.805 431.145C103.461 418.978 106.069 391.465 143.255 378.744C189.737 362.843 184.686 345.483 188.921 329.528C193.156 313.574 201.676 296.642 244.799 298.699C287.923 300.757 328.575 295.444 353.257 261.598C373.002 234.521 396.04 226.705 404.702 224.728C413.364 222.751 437.441 219.811 466.368 235.777C502.526 255.734 541.565 242.855 579.847 222.214C618.128 201.573 632.745 213.224 643.077 225.852C653.409 238.481 655.889 256.429 704.523 250.616Z" fill="url(#paint1_linear_11_127)"/>
<path d="M171.095 411.032C134.646 423.744 132.33 451.121 135.729 463.22L176.458 648.372L816.312 499.278L821.924 429.197C819.927 416.771 806.379 393.091 768.165 397.776C720.396 403.633 717.795 385.781 707.522 373.233C697.248 360.685 640.194 259.7 596.815 256.635C554.468 253.643 523.249 288.105 487.515 268.305C458.927 252.465 435.279 255.427 426.78 257.407C418.28 259.387 395.699 267.198 376.528 294.166C352.565 327.876 312.64 333.224 270.219 331.243C227.797 329.262 219.573 346.12 215.553 361.999C211.533 377.878 216.656 395.142 171.095 411.032Z" fill="black"/>
<path d="M171.095 411.032C134.646 423.744 132.33 451.121 135.729 463.22L176.458 648.372L816.312 499.278L821.924 429.197C819.927 416.771 806.379 393.091 768.165 397.776C720.396 403.633 717.795 385.781 707.522 373.233C697.248 360.685 640.194 259.7 596.815 256.635C554.468 253.643 523.249 288.105 487.515 268.305C458.927 252.465 435.279 255.427 426.78 257.407C418.28 259.387 395.699 267.198 376.528 294.166C352.565 327.876 312.64 333.224 270.219 331.243C227.797 329.262 219.573 346.12 215.553 361.999C211.533 377.878 216.656 395.142 171.095 411.032Z" fill="url(#paint2_linear_11_127)"/>
<path d="M175.368 548.2C148.057 575.48 157.861 601.146 166.177 610.569L283.278 759.658L794.882 347.465L769.5 281.901C762.305 271.576 739.817 256.129 707.429 276.947C666.945 302.969 656.849 288.018 642.145 281.177C627.441 274.336 532.19 208.152 491.785 224.231C452.341 239.927 439.187 284.528 398.399 282.213C365.77 280.36 345.754 293.299 338.958 298.774C332.163 304.249 315.214 321.092 309.659 353.71C302.714 394.482 269.074 416.639 230.002 433.279C190.93 449.918 190.843 468.675 194.118 484.724C197.394 500.773 209.507 514.099 175.368 548.2Z" fill="black"/>
<path d="M175.368 548.2C148.057 575.48 157.861 601.146 166.177 610.569L283.278 759.658L794.882 347.465L769.5 281.901C762.305 271.576 739.817 256.129 707.429 276.947C666.945 302.969 656.849 288.018 642.145 281.177C627.441 274.336 532.19 208.152 491.785 224.231C452.341 239.927 439.187 284.528 398.399 282.213C365.77 280.36 345.754 293.299 338.958 298.774C332.163 304.249 315.214 321.092 309.659 353.71C302.714 394.482 269.074 416.639 230.002 433.279C190.93 449.918 190.843 468.675 194.118 484.724C197.394 500.773 209.507 514.099 175.368 548.2Z" fill="url(#paint3_linear_11_127)"/>
<defs>
<linearGradient id="paint0_linear_11_127" x1="180.226" y1="496.905" x2="826.233" y2="89.8581" gradientUnits="userSpaceOnUse">
<stop stop-color="#9FFF7D"/>
<stop offset="0.471875" stop-color="#69FB10"/>
<stop offset="1" stop-color="#94ED5E"/>
</linearGradient>
<linearGradient id="paint1_linear_11_127" x1="961.505" y1="130.603" x2="228.526" y2="344.58" gradientUnits="userSpaceOnUse">
<stop stop-color="#41FA00"/>
<stop offset="0.505208" stop-color="#86FF72"/>
<stop offset="1" stop-color="#A4F057"/>
</linearGradient>
<linearGradient id="paint2_linear_11_127" x1="172.845" y1="632.143" x2="817.41" y2="152.262" gradientUnits="userSpaceOnUse">
<stop stop-color="#7AFF9F"/>
<stop offset="0.505208" stop-color="#9EFFB8"/>
<stop offset="1" stop-color="#FFFFCC"/>
</linearGradient>
<linearGradient id="paint3_linear_11_127" x1="272.975" y1="746.609" x2="645.159" y2="34.4085" gradientUnits="userSpaceOnUse">
<stop stop-color="#91DCD1"/>
<stop offset="0.505208" stop-color="#B9E8DB"/>
<stop offset="1" stop-color="#DAF1DE"/>
</linearGradient>
</defs>
</svg>
