<svg width="701" height="160" viewBox="0 0 701 160" fill="none" xmlns="http://www.w3.org/2000/svg">
<path d="M96.5439 61.88C95.8506 61.0267 95.5039 60.2667 95.5039 59.6C95.5039 58.9067 96.0772 58 97.2239 56.88C97.8906 56.24 98.5972 55.92 99.3439 55.92C100.091 55.92 101.131 56.5867 102.464 57.92C102.837 58.3733 103.371 58.8133 104.064 59.24C104.757 59.64 105.397 59.84 105.984 59.84C108.464 59.84 109.704 58.8267 109.704 56.8C109.704 56.1867 109.357 55.68 108.664 55.28C107.997 54.8533 107.157 54.5467 106.144 54.36C105.131 54.1733 104.037 53.88 102.864 53.48C101.691 53.0533 100.597 52.56 99.5839 52C98.5706 51.44 97.7172 50.56 97.0239 49.36C96.3572 48.1333 96.0239 46.6667 96.0239 44.96C96.0239 42.6133 96.8906 40.5733 98.6239 38.84C100.384 37.08 102.771 36.2 105.784 36.2C107.384 36.2 108.837 36.4133 110.144 36.84C111.477 37.24 112.397 37.6533 112.904 38.08L113.904 38.84C114.731 39.6133 115.144 40.2667 115.144 40.8C115.144 41.3333 114.824 42.0667 114.184 43C113.277 44.3333 112.344 45 111.384 45C110.824 45 110.131 44.7333 109.304 44.2C109.224 44.1467 109.064 44.0133 108.824 43.8C108.611 43.5867 108.411 43.4133 108.224 43.28C107.664 42.9333 106.944 42.76 106.064 42.76C105.211 42.76 104.491 42.9733 103.904 43.4C103.344 43.8 103.064 44.3733 103.064 45.12C103.064 45.84 103.397 46.4267 104.064 46.88C104.757 47.3333 105.611 47.64 106.624 47.8C107.637 47.96 108.744 48.2133 109.944 48.56C111.144 48.88 112.251 49.28 113.264 49.76C114.277 50.24 115.117 51.08 115.784 52.28C116.477 53.4533 116.824 54.9067 116.824 56.64C116.824 58.3733 116.477 59.9067 115.784 61.24C115.091 62.5467 114.184 63.56 113.064 64.28C110.904 65.6933 108.597 66.4 106.144 66.4C104.891 66.4 103.704 66.2533 102.584 65.96C101.464 65.64 100.557 65.2533 99.8639 64.8C98.4506 63.9467 97.4639 63.12 96.9039 62.32L96.5439 61.88ZM131.104 45C133.771 45 135.984 46.0133 137.744 48.04C139.531 50.0667 140.424 52.5467 140.424 55.48V62.52C140.424 63.1333 140.398 63.6 140.344 63.92C140.318 64.2133 140.198 64.56 139.984 64.96C139.638 65.6533 138.611 66 136.904 66C135.278 66 134.264 65.6533 133.864 64.96C133.651 64.56 133.518 64.2 133.464 63.88C133.438 63.56 133.424 63.08 133.424 62.44V55.44C133.424 54.3467 133.118 53.4933 132.504 52.88C131.891 52.2667 131.104 51.96 130.144 51.96C129.211 51.96 128.384 52.2533 127.664 52.84C126.944 53.4 126.531 54.04 126.424 54.76V62.52C126.424 63.1333 126.398 63.6 126.344 63.92C126.318 64.2133 126.198 64.56 125.984 64.96C125.638 65.6533 124.611 66 122.904 66C121.224 66 120.198 65.64 119.824 64.92C119.638 64.52 119.518 64.1733 119.464 63.88C119.438 63.5867 119.424 63.12 119.424 62.48V38.56C119.424 37.9467 119.438 37.4933 119.464 37.2C119.518 36.88 119.638 36.5333 119.824 36.16C120.198 35.44 121.238 35.08 122.944 35.08C124.624 35.08 125.638 35.44 125.984 36.16C126.198 36.56 126.318 36.92 126.344 37.24C126.398 37.5333 126.424 37.9867 126.424 38.6V47.44C127.758 45.8133 129.318 45 131.104 45ZM157.323 47.16C157.483 45.6667 158.536 44.92 160.483 44.92C161.523 44.92 162.296 45 162.803 45.16C163.31 45.32 163.656 45.6 163.843 46C164.056 46.4 164.176 46.76 164.203 47.08C164.256 47.3733 164.283 47.8267 164.283 48.44V62.44C164.283 63.0533 164.256 63.52 164.203 63.84C164.176 64.1333 164.07 64.48 163.883 64.88C163.51 65.5733 162.59 65.92 161.123 65.92C159.683 65.92 158.71 65.7467 158.203 65.4C157.723 65.0267 157.443 64.4933 157.363 63.8C156.376 65.2133 154.723 65.92 152.403 65.92C150.11 65.92 147.976 64.8667 146.003 62.76C144.03 60.6533 143.043 58.2133 143.043 55.44C143.043 52.64 144.03 50.2 146.003 48.12C148.003 46.0133 150.19 44.96 152.563 44.96C153.47 44.96 154.296 45.12 155.043 45.44C155.79 45.76 156.31 46.0667 156.603 46.36C156.896 46.6267 157.136 46.8933 157.323 47.16ZM150.043 55.48C150.043 56.36 150.39 57.16 151.083 57.88C151.776 58.5733 152.616 58.92 153.603 58.92C154.59 58.92 155.403 58.56 156.043 57.84C156.71 57.12 157.043 56.3333 157.043 55.48C157.043 54.6 156.723 53.7867 156.083 53.04C155.47 52.2933 154.63 51.92 153.563 51.92C152.523 51.92 151.67 52.2933 151.003 53.04C150.363 53.7867 150.043 54.6 150.043 55.48ZM167.471 71.72V48.36C167.471 47.7467 167.484 47.2933 167.511 47C167.564 46.7067 167.684 46.3733 167.871 46C168.244 45.28 169.138 44.92 170.551 44.92C171.964 44.92 172.911 45.1067 173.391 45.48C173.898 45.8267 174.191 46.3467 174.271 47.04C175.284 45.6533 176.871 44.96 179.031 44.96C181.218 44.96 183.284 45.9867 185.231 48.04C187.178 50.0933 188.151 52.48 188.151 55.2C188.151 57.92 187.178 60.3067 185.231 62.36C183.311 64.4133 181.258 65.44 179.071 65.44C176.884 65.44 175.298 64.8267 174.311 63.6V71.68C174.311 72.2933 174.284 72.7467 174.231 73.04C174.204 73.3333 174.084 73.6667 173.871 74.04C173.684 74.44 173.351 74.72 172.871 74.88C172.391 75.04 171.738 75.12 170.911 75.12C170.084 75.12 169.418 75.04 168.911 74.88C168.431 74.72 168.084 74.4533 167.871 74.08C167.684 73.7067 167.564 73.3733 167.511 73.08C167.484 72.7867 167.471 72.3333 167.471 71.72ZM175.391 52.88C174.778 53.6 174.471 54.3867 174.471 55.24C174.471 56.0933 174.778 56.88 175.391 57.6C176.031 58.2933 176.831 58.64 177.791 58.64C178.778 58.64 179.604 58.2933 180.271 57.6C180.964 56.9067 181.311 56.12 181.311 55.24C181.311 54.36 180.991 53.5733 180.351 52.88C179.711 52.16 178.871 51.8 177.831 51.8C176.818 51.8 176.004 52.16 175.391 52.88ZM190.752 48.44C190.752 47.8267 190.766 47.3733 190.792 47.08C190.846 46.76 190.966 46.4 191.152 46C191.526 45.3067 192.566 44.96 194.272 44.96C195.552 44.96 196.459 45.1867 196.992 45.64C197.446 46.0133 197.686 46.5867 197.712 47.36C197.739 47.6267 197.752 48.0133 197.752 48.52V62.52C197.752 63.1333 197.726 63.6 197.672 63.92C197.646 64.2133 197.526 64.56 197.312 64.96C196.966 65.6533 195.939 66 194.232 66C192.552 66 191.526 65.64 191.152 64.92C190.966 64.52 190.846 64.1733 190.792 63.88C190.766 63.5867 190.752 63.12 190.752 62.48V48.44ZM197.312 41.04C197.126 41.4133 196.779 41.68 196.272 41.84C195.766 42 195.086 42.08 194.232 42.08C193.406 42.08 192.739 42 192.232 41.84C191.726 41.68 191.366 41.4 191.152 41C190.966 40.6 190.846 40.2533 190.792 39.96C190.766 39.64 190.752 39.1733 190.752 38.56C190.752 37.9467 190.766 37.4933 190.792 37.2C190.846 36.88 190.966 36.5333 191.152 36.16C191.526 35.44 192.566 35.08 194.272 35.08C195.952 35.08 196.966 35.44 197.312 36.16C197.526 36.56 197.646 36.92 197.672 37.24C197.726 37.5333 197.752 37.9867 197.752 38.6C197.752 39.2133 197.726 39.68 197.672 40C197.646 40.2933 197.526 40.64 197.312 41.04ZM212.668 44.92C215.334 44.92 217.548 45.9467 219.308 48C221.094 50.0267 221.988 52.5067 221.988 55.44V62.48C221.988 63.0933 221.961 63.56 221.908 63.88C221.881 64.1733 221.774 64.5067 221.588 64.88C221.214 65.6 220.174 65.96 218.468 65.96C216.574 65.96 215.481 65.4667 215.188 64.48C215.028 64.0267 214.948 63.3467 214.948 62.44V55.4C214.948 54.3067 214.628 53.4533 213.988 52.84C213.374 52.2267 212.534 51.92 211.468 51.92C210.428 51.92 209.574 52.24 208.908 52.88C208.268 53.52 207.948 54.36 207.948 55.4V62.48C207.948 63.0933 207.921 63.56 207.868 63.88C207.841 64.1733 207.721 64.5067 207.508 64.88C207.161 65.6 206.134 65.96 204.428 65.96C202.748 65.96 201.721 65.6 201.348 64.88C201.161 64.48 201.041 64.1333 200.988 63.84C200.961 63.52 200.948 63.0533 200.948 62.44V48.28C200.948 47.6933 200.961 47.2533 200.988 46.96C201.041 46.64 201.174 46.2933 201.388 45.92C201.761 45.2533 202.788 44.92 204.468 44.92C206.094 44.92 207.094 45.2267 207.468 45.84C207.734 46.2933 207.868 46.84 207.868 47.48C207.974 47.2933 208.214 47.0267 208.588 46.68C208.961 46.3333 209.321 46.0533 209.668 45.84C210.574 45.2267 211.574 44.92 212.668 44.92ZM238.565 63.36C237.552 64.6933 235.939 65.36 233.725 65.36C231.512 65.36 229.432 64.3467 227.485 62.32C225.565 60.2667 224.605 57.88 224.605 55.16C224.605 52.44 225.579 50.0533 227.525 48C229.472 45.9467 231.605 44.92 233.925 44.92C234.832 44.92 235.659 45.0933 236.405 45.44C237.152 45.76 237.659 46.0667 237.925 46.36C238.219 46.6267 238.445 46.88 238.605 47.12C238.685 46.3733 238.952 45.8133 239.405 45.44C239.885 45.04 240.645 44.84 241.685 44.84C242.725 44.84 243.485 44.92 243.965 45.08C244.445 45.24 244.779 45.52 244.965 45.92C245.179 46.2933 245.299 46.6267 245.325 46.92C245.379 47.2133 245.405 47.6667 245.405 48.28V64.84C245.405 67.9067 244.339 70.3733 242.205 72.24C240.072 74.1333 237.672 75.08 235.005 75.08C232.979 75.08 231.045 74.5867 229.205 73.6C227.365 72.6133 226.445 71.72 226.445 70.92C226.445 69.88 226.845 68.96 227.645 68.16C228.152 67.6 228.539 67.2133 228.805 67C229.099 66.7867 229.432 66.68 229.805 66.68C230.179 66.68 230.565 66.84 230.965 67.16C232.245 68.1467 233.632 68.64 235.125 68.64C236.139 68.64 236.965 68.24 237.605 67.44C238.245 66.64 238.565 65.68 238.565 64.56V63.36ZM231.445 55.2C231.445 56.0533 231.779 56.8267 232.445 57.52C233.139 58.2133 233.965 58.56 234.925 58.56C235.912 58.56 236.725 58.2133 237.365 57.52C238.005 56.8 238.325 56.0267 238.325 55.2C238.325 54.3467 238.019 53.56 237.405 52.84C236.792 52.0933 235.965 51.72 234.925 51.72C233.885 51.72 233.045 52.08 232.405 52.8C231.765 53.52 231.445 54.32 231.445 55.2ZM258.721 40.2C258.721 39.5867 258.734 39.1333 258.761 38.84C258.814 38.52 258.948 38.16 259.161 37.76C259.534 37.04 260.574 36.68 262.281 36.68C264.148 36.68 265.254 37.1733 265.601 38.16C265.734 38.6133 265.801 39.3067 265.801 40.24V62.48C265.801 63.12 265.774 63.5867 265.721 63.88C265.694 64.1733 265.574 64.52 265.361 64.92C264.988 65.64 263.948 66 262.241 66C260.374 66 259.281 65.4933 258.961 64.48C258.801 64.0533 258.721 63.3733 258.721 62.44V40.2ZM280.715 44.92C283.381 44.92 285.595 45.9467 287.355 48C289.141 50.0267 290.035 52.5067 290.035 55.44V62.48C290.035 63.0933 290.008 63.56 289.955 63.88C289.928 64.1733 289.821 64.5067 289.635 64.88C289.261 65.6 288.221 65.96 286.515 65.96C284.621 65.96 283.528 65.4667 283.235 64.48C283.075 64.0267 282.995 63.3467 282.995 62.44V55.4C282.995 54.3067 282.675 53.4533 282.035 52.84C281.421 52.2267 280.581 51.92 279.515 51.92C278.475 51.92 277.621 52.24 276.955 52.88C276.315 53.52 275.995 54.36 275.995 55.4V62.48C275.995 63.0933 275.968 63.56 275.915 63.88C275.888 64.1733 275.768 64.5067 275.555 64.88C275.208 65.6 274.181 65.96 272.475 65.96C270.795 65.96 269.768 65.6 269.395 64.88C269.208 64.48 269.088 64.1333 269.035 63.84C269.008 63.52 268.995 63.0533 268.995 62.44V48.28C268.995 47.6933 269.008 47.2533 269.035 46.96C269.088 46.64 269.221 46.2933 269.435 45.92C269.808 45.2533 270.835 44.92 272.515 44.92C274.141 44.92 275.141 45.2267 275.515 45.84C275.781 46.2933 275.915 46.84 275.915 47.48C276.021 47.2933 276.261 47.0267 276.635 46.68C277.008 46.3333 277.368 46.0533 277.715 45.84C278.621 45.2267 279.621 44.92 280.715 44.92ZM307.372 36.16C307.586 35.76 307.946 35.48 308.452 35.32C308.959 35.16 309.626 35.08 310.452 35.08C311.306 35.08 311.986 35.16 312.492 35.32C312.999 35.48 313.346 35.76 313.532 36.16C313.746 36.56 313.866 36.92 313.892 37.24C313.946 37.5333 313.972 37.9867 313.972 38.6V62.48C313.972 63.0933 313.946 63.56 313.892 63.88C313.866 64.1733 313.746 64.5067 313.532 64.88C313.132 65.6 311.999 65.96 310.132 65.96C308.292 65.96 307.266 65.3067 307.052 64C305.932 65.28 304.372 65.92 302.372 65.92C299.972 65.92 297.786 64.88 295.812 62.8C293.839 60.6933 292.852 58.2533 292.852 55.48C292.852 52.68 293.839 50.2267 295.812 48.12C297.812 46.0133 299.999 44.96 302.372 44.96C304.346 44.96 305.879 45.6267 306.972 46.96V38.56C306.972 37.9467 306.986 37.4933 307.012 37.2C307.066 36.88 307.186 36.5333 307.372 36.16ZM300.892 57.88C301.586 58.6 302.426 58.96 303.412 58.96C304.399 58.96 305.212 58.6 305.852 57.88C306.519 57.16 306.852 56.3733 306.852 55.52C306.852 54.64 306.532 53.8267 305.892 53.08C305.279 52.3333 304.439 51.96 303.372 51.96C302.306 51.96 301.452 52.3333 300.812 53.08C300.172 53.8 299.852 54.6 299.852 55.48C299.852 56.36 300.199 57.16 300.892 57.88ZM316.559 55.48C316.559 52.28 317.679 49.64 319.919 47.56C322.159 45.48 324.719 44.44 327.599 44.44C330.479 44.44 333.025 45.48 335.239 47.56C337.452 49.6133 338.559 52.24 338.559 55.44C338.559 57.6533 337.985 59.6267 336.839 61.36C335.692 63.0667 334.292 64.3333 332.639 65.16C331.012 65.96 329.319 66.36 327.559 66.36C325.799 66.36 324.092 65.9333 322.439 65.08C320.785 64.2 319.385 62.92 318.239 61.24C317.119 59.5333 316.559 57.6133 316.559 55.48ZM324.919 58.36C325.772 59 326.639 59.32 327.519 59.32C328.399 59.32 329.279 58.9867 330.159 58.32C331.039 57.6533 331.479 56.6667 331.479 55.36C331.479 54.0533 331.065 53.08 330.239 52.44C329.412 51.8 328.519 51.48 327.559 51.48C326.599 51.48 325.705 51.8133 324.879 52.48C324.052 53.1467 323.639 54.1333 323.639 55.44C323.639 56.72 324.065 57.6933 324.919 58.36ZM352.863 44.92C355.53 44.92 357.743 45.9467 359.503 48C361.29 50.0267 362.183 52.5067 362.183 55.44V62.48C362.183 63.0933 362.156 63.56 362.103 63.88C362.076 64.1733 361.97 64.5067 361.783 64.88C361.41 65.6 360.37 65.96 358.663 65.96C356.77 65.96 355.676 65.4667 355.383 64.48C355.223 64.0267 355.143 63.3467 355.143 62.44V55.4C355.143 54.3067 354.823 53.4533 354.183 52.84C353.57 52.2267 352.73 51.92 351.663 51.92C350.623 51.92 349.77 52.24 349.103 52.88C348.463 53.52 348.143 54.36 348.143 55.4V62.48C348.143 63.0933 348.116 63.56 348.063 63.88C348.036 64.1733 347.916 64.5067 347.703 64.88C347.356 65.6 346.33 65.96 344.623 65.96C342.943 65.96 341.916 65.6 341.543 64.88C341.356 64.48 341.236 64.1333 341.183 63.84C341.156 63.52 341.143 63.0533 341.143 62.44V48.28C341.143 47.6933 341.156 47.2533 341.183 46.96C341.236 46.64 341.37 46.2933 341.583 45.92C341.956 45.2533 342.983 44.92 344.663 44.92C346.29 44.92 347.29 45.2267 347.663 45.84C347.93 46.2933 348.063 46.84 348.063 47.48C348.17 47.2933 348.41 47.0267 348.783 46.68C349.156 46.3333 349.516 46.0533 349.863 45.84C350.77 45.2267 351.77 44.92 352.863 44.92ZM385.721 52.96C385.721 54.5867 385.307 55.8 384.481 56.6C383.681 57.3733 382.787 57.76 381.801 57.76H372.321C372.321 58.5067 372.761 59.1333 373.641 59.64C374.521 60.1467 375.401 60.4 376.281 60.4C377.827 60.4 379.041 60.24 379.921 59.92L380.361 59.76C381.001 59.4667 381.534 59.32 381.961 59.32C382.814 59.32 383.547 59.92 384.161 61.12C384.507 61.84 384.681 62.4533 384.681 62.96C384.681 65.3333 381.841 66.52 376.161 66.52C374.187 66.52 372.427 66.1867 370.881 65.52C369.361 64.8267 368.174 63.92 367.321 62.8C365.641 60.64 364.801 58.2267 364.801 55.56C364.801 52.2 365.881 49.52 368.041 47.52C370.227 45.4933 372.947 44.48 376.201 44.48C379.907 44.48 382.627 45.7867 384.361 48.4C385.267 49.7867 385.721 51.3067 385.721 52.96ZM377.281 54.12C378.294 54.12 378.801 53.6933 378.801 52.84C378.801 52.2267 378.561 51.7333 378.081 51.36C377.627 50.9867 376.961 50.8 376.081 50.8C375.227 50.8 374.374 51.16 373.521 51.88C372.667 52.5733 372.241 53.32 372.241 54.12H377.281ZM388.49 64.12C387.984 63.8 387.73 63.2933 387.73 62.6C387.73 61.9067 388.237 60.8533 389.25 59.44C389.544 58.9867 390.01 58.76 390.65 58.76C391.317 58.76 392.21 59.0933 393.33 59.76C394.45 60.4 395.464 60.72 396.37 60.72C397.997 60.72 398.81 60.4 398.81 59.76C398.81 59.2533 397.917 58.88 396.13 58.64C394.45 58.4 392.784 57.7733 391.13 56.76C390.357 56.28 389.717 55.5333 389.21 54.52C388.704 53.48 388.45 52.2533 388.45 50.84C388.45 46.6267 391.344 44.52 397.13 44.52C399.024 44.52 400.97 44.9733 402.97 45.88C403.904 46.3067 404.37 46.84 404.37 47.48C404.37 48.12 404.077 48.9067 403.49 49.84C402.904 50.7733 402.304 51.24 401.69 51.24C401.37 51.24 400.77 51.04 399.89 50.64C399.037 50.24 398.104 50.04 397.09 50.04C395.517 50.04 394.73 50.3333 394.73 50.92C394.73 51.72 395.637 52.24 397.45 52.48C399.21 52.6667 400.917 53.1733 402.57 54C403.344 54.3733 403.984 55.0267 404.49 55.96C405.024 56.8667 405.29 58.0133 405.29 59.4C405.29 60.7867 405.024 61.9733 404.49 62.96C403.984 63.92 403.264 64.64 402.33 65.12C400.624 65.9467 398.477 66.36 395.89 66.36C393.33 66.36 390.864 65.6133 388.49 64.12ZM407.901 48.44C407.901 47.8267 407.914 47.3733 407.941 47.08C407.994 46.76 408.114 46.4 408.301 46C408.674 45.3067 409.714 44.96 411.421 44.96C412.701 44.96 413.607 45.1867 414.141 45.64C414.594 46.0133 414.834 46.5867 414.861 47.36C414.887 47.6267 414.901 48.0133 414.901 48.52V62.52C414.901 63.1333 414.874 63.6 414.821 63.92C414.794 64.2133 414.674 64.56 414.461 64.96C414.114 65.6533 413.087 66 411.381 66C409.701 66 408.674 65.64 408.301 64.92C408.114 64.52 407.994 64.1733 407.941 63.88C407.914 63.5867 407.901 63.12 407.901 62.48V48.44ZM414.461 41.04C414.274 41.4133 413.927 41.68 413.421 41.84C412.914 42 412.234 42.08 411.381 42.08C410.554 42.08 409.887 42 409.381 41.84C408.874 41.68 408.514 41.4 408.301 41C408.114 40.6 407.994 40.2533 407.941 39.96C407.914 39.64 407.901 39.1733 407.901 38.56C407.901 37.9467 407.914 37.4933 407.941 37.2C407.994 36.88 408.114 36.5333 408.301 36.16C408.674 35.44 409.714 35.08 411.421 35.08C413.101 35.08 414.114 35.44 414.461 36.16C414.674 36.56 414.794 36.92 414.821 37.24C414.874 37.5333 414.901 37.9867 414.901 38.6C414.901 39.2133 414.874 39.68 414.821 40C414.794 40.2933 414.674 40.64 414.461 41.04ZM431.776 47.16C431.936 45.6667 432.989 44.92 434.936 44.92C435.976 44.92 436.749 45 437.256 45.16C437.763 45.32 438.109 45.6 438.296 46C438.509 46.4 438.629 46.76 438.656 47.08C438.709 47.3733 438.736 47.8267 438.736 48.44V62.44C438.736 63.0533 438.709 63.52 438.656 63.84C438.629 64.1333 438.523 64.48 438.336 64.88C437.963 65.5733 437.043 65.92 435.576 65.92C434.136 65.92 433.163 65.7467 432.656 65.4C432.176 65.0267 431.896 64.4933 431.816 63.8C430.829 65.2133 429.176 65.92 426.856 65.92C424.563 65.92 422.429 64.8667 420.456 62.76C418.483 60.6533 417.496 58.2133 417.496 55.44C417.496 52.64 418.483 50.2 420.456 48.12C422.456 46.0133 424.643 44.96 427.016 44.96C427.923 44.96 428.749 45.12 429.496 45.44C430.243 45.76 430.763 46.0667 431.056 46.36C431.349 46.6267 431.589 46.8933 431.776 47.16ZM424.496 55.48C424.496 56.36 424.843 57.16 425.536 57.88C426.229 58.5733 427.069 58.92 428.056 58.92C429.043 58.92 429.856 58.56 430.496 57.84C431.163 57.12 431.496 56.3333 431.496 55.48C431.496 54.6 431.176 53.7867 430.536 53.04C429.923 52.2933 429.083 51.92 428.016 51.92C426.976 51.92 426.123 52.2933 425.456 53.04C424.816 53.7867 424.496 54.6 424.496 55.48ZM447.644 41.2C447.644 42.72 447.351 44.6933 446.764 47.12C446.178 49.5467 445.404 50.76 444.444 50.76C443.511 50.76 442.751 49.5467 442.164 47.12C441.604 44.6933 441.324 42.52 441.324 40.6C441.324 38.92 441.551 37.8667 442.004 37.44C442.564 36.9333 443.298 36.68 444.204 36.68C445.138 36.68 445.831 36.7867 446.284 37C446.764 37.1867 447.098 37.4933 447.284 37.92C447.524 38.5867 447.644 39.68 447.644 41.2ZM448.998 64.12C448.492 63.8 448.238 63.2933 448.238 62.6C448.238 61.9067 448.745 60.8533 449.758 59.44C450.052 58.9867 450.518 58.76 451.158 58.76C451.825 58.76 452.718 59.0933 453.838 59.76C454.958 60.4 455.972 60.72 456.878 60.72C458.505 60.72 459.318 60.4 459.318 59.76C459.318 59.2533 458.425 58.88 456.638 58.64C454.958 58.4 453.292 57.7733 451.638 56.76C450.865 56.28 450.225 55.5333 449.718 54.52C449.212 53.48 448.958 52.2533 448.958 50.84C448.958 46.6267 451.852 44.52 457.638 44.52C459.532 44.52 461.478 44.9733 463.478 45.88C464.412 46.3067 464.878 46.84 464.878 47.48C464.878 48.12 464.585 48.9067 463.998 49.84C463.412 50.7733 462.812 51.24 462.198 51.24C461.878 51.24 461.278 51.04 460.398 50.64C459.545 50.24 458.612 50.04 457.598 50.04C456.025 50.04 455.238 50.3333 455.238 50.92C455.238 51.72 456.145 52.24 457.958 52.48C459.718 52.6667 461.425 53.1733 463.078 54C463.852 54.3733 464.492 55.0267 464.998 55.96C465.532 56.8667 465.798 58.0133 465.798 59.4C465.798 60.7867 465.532 61.9733 464.998 62.96C464.492 63.92 463.772 64.64 462.838 65.12C461.132 65.9467 458.985 66.36 456.398 66.36C453.838 66.36 451.372 65.6133 448.998 64.12ZM497.926 36.68C498.539 36.68 498.992 36.7067 499.286 36.76C499.606 36.7867 499.952 36.9067 500.326 37.12C500.726 37.3333 501.006 37.6933 501.166 38.2C501.326 38.7067 501.406 39.3867 501.406 40.24C501.406 41.0933 501.326 41.7733 501.166 42.28C501.006 42.7867 500.726 43.1467 500.326 43.36C499.926 43.5467 499.566 43.6667 499.246 43.72C498.952 43.7467 498.486 43.76 497.846 43.76H485.606V47.8H493.486C494.126 47.8 494.592 47.8267 494.886 47.88C495.206 47.9067 495.566 48.0267 495.966 48.24C496.659 48.64 497.006 49.6933 497.006 51.4C497.006 53.2667 496.499 54.3733 495.486 54.72C495.059 54.8533 494.379 54.92 493.446 54.92H485.606V62.48C485.606 63.12 485.579 63.5867 485.526 63.88C485.499 64.1733 485.379 64.52 485.166 64.92C484.792 65.64 483.752 66 482.046 66C480.179 66 479.086 65.4933 478.766 64.48C478.606 64.0533 478.526 63.3733 478.526 62.44V40.2C478.526 38.84 478.779 37.92 479.286 37.44C479.792 36.9333 480.752 36.68 482.166 36.68H497.926ZM510.972 65.92C508.278 65.92 506.038 64.9067 504.252 62.88C502.492 60.8267 501.612 58.3333 501.612 55.4V48.4C501.612 47.76 501.625 47.2933 501.652 47C501.705 46.7067 501.825 46.36 502.012 45.96C502.385 45.24 503.425 44.88 505.132 44.88C506.998 44.88 508.092 45.3867 508.412 46.4C508.572 46.8267 508.652 47.5067 508.652 48.44V55.44C508.652 56.5333 508.958 57.3867 509.572 58C510.212 58.6133 511.052 58.92 512.092 58.92C513.158 58.92 514.012 58.6 514.652 57.96C515.318 57.32 515.652 56.48 515.652 55.44V48.36C515.652 47.7467 515.665 47.2933 515.692 47C515.745 46.68 515.878 46.32 516.092 45.92C516.438 45.2267 517.465 44.88 519.172 44.88C520.852 44.88 521.878 45.24 522.252 45.96C522.438 46.36 522.545 46.72 522.572 47.04C522.625 47.3333 522.652 47.7867 522.652 48.4V62.56C522.652 63.1467 522.625 63.6 522.572 63.92C522.545 64.2133 522.425 64.5467 522.212 64.92C521.812 65.6133 520.785 65.96 519.132 65.96C517.505 65.96 516.505 65.64 516.132 65C515.865 64.5467 515.732 64 515.732 63.36C515.625 63.5467 515.385 63.8133 515.012 64.16C514.638 64.5067 514.278 64.8 513.932 65.04C513.025 65.6267 512.038 65.92 510.972 65.92ZM538.11 52L535.51 51.84V57.36C535.51 58.08 535.616 58.6 535.83 58.92C536.07 59.24 536.496 59.4 537.11 59.4C537.75 59.4 538.23 59.4267 538.55 59.48C538.896 59.5067 539.256 59.6267 539.63 59.84C540.243 60.1867 540.55 61.08 540.55 62.52C540.55 64.2 540.176 65.2267 539.43 65.6C539.03 65.7867 538.67 65.9067 538.35 65.96C538.056 65.9867 537.616 66 537.03 66C534.256 66 532.15 65.3733 530.71 64.12C529.27 62.8667 528.55 60.7467 528.55 57.76V51.84C528.043 51.92 527.496 51.96 526.91 51.96C526.323 51.96 525.83 51.7333 525.43 51.28C525.056 50.8267 524.87 50.0533 524.87 48.96C524.87 47.8667 524.936 47.08 525.07 46.6C525.203 46.0933 525.39 45.7333 525.63 45.52C526.056 45.1733 526.59 45 527.23 45L528.55 45.16V41.04C528.55 40.4267 528.563 39.9733 528.59 39.68C528.643 39.3867 528.776 39.0667 528.99 38.72C529.336 38.0533 530.363 37.72 532.07 37.72C533.883 37.72 534.963 38.2133 535.31 39.2C535.443 39.6267 535.51 40.3067 535.51 41.24V45.16C536.683 45.0533 537.563 45 538.15 45C538.763 45 539.216 45.0267 539.51 45.08C539.83 45.1067 540.19 45.2267 540.59 45.44C541.283 45.7867 541.63 46.8133 541.63 48.52C541.63 50.2 541.27 51.2267 540.55 51.6C540.15 51.7867 539.79 51.9067 539.47 51.96C539.176 51.9867 538.723 52 538.11 52ZM553.198 65.92C550.505 65.92 548.265 64.9067 546.478 62.88C544.718 60.8267 543.838 58.3333 543.838 55.4V48.4C543.838 47.76 543.852 47.2933 543.878 47C543.932 46.7067 544.052 46.36 544.238 45.96C544.612 45.24 545.652 44.88 547.358 44.88C549.225 44.88 550.318 45.3867 550.638 46.4C550.798 46.8267 550.878 47.5067 550.878 48.44V55.44C550.878 56.5333 551.185 57.3867 551.798 58C552.438 58.6133 553.278 58.92 554.318 58.92C555.385 58.92 556.238 58.6 556.878 57.96C557.545 57.32 557.878 56.48 557.878 55.44V48.36C557.878 47.7467 557.892 47.2933 557.918 47C557.972 46.68 558.105 46.32 558.318 45.92C558.665 45.2267 559.692 44.88 561.398 44.88C563.078 44.88 564.105 45.24 564.478 45.96C564.665 46.36 564.772 46.72 564.798 47.04C564.852 47.3333 564.878 47.7867 564.878 48.4V62.56C564.878 63.1467 564.852 63.6 564.798 63.92C564.772 64.2133 564.652 64.5467 564.438 64.92C564.038 65.6133 563.012 65.96 561.358 65.96C559.732 65.96 558.732 65.64 558.358 65C558.092 64.5467 557.958 64 557.958 63.36C557.852 63.5467 557.612 63.8133 557.238 64.16C556.865 64.5067 556.505 64.8 556.158 65.04C555.252 65.6267 554.265 65.92 553.198 65.92ZM582.416 45.16C582.923 45.32 583.336 45.6 583.656 46C584.003 46.3733 584.176 46.9867 584.176 47.84C584.176 48.6933 583.923 49.6267 583.416 50.64C582.909 51.6533 582.176 52.16 581.216 52.16C580.736 52.16 580.269 52.0533 579.816 51.84C579.389 51.6267 578.816 51.52 578.096 51.52C577.376 51.52 576.696 51.7733 576.056 52.28C575.443 52.7867 575.136 53.4 575.136 54.12V62.52C575.136 63.1333 575.109 63.6 575.056 63.92C575.029 64.2133 574.909 64.56 574.696 64.96C574.296 65.6533 573.256 66 571.576 66C570.296 66 569.376 65.7733 568.816 65.32C568.389 64.9467 568.149 64.3733 568.096 63.6C568.096 63.3333 568.096 62.9467 568.096 62.44V48.4C568.096 47.7867 568.109 47.3333 568.136 47.04C568.189 46.72 568.309 46.3733 568.496 46C568.869 45.28 569.909 44.92 571.616 44.92C573.216 44.92 574.216 45.2267 574.616 45.84C574.909 46.2667 575.056 46.7067 575.056 47.16C575.189 46.9733 575.376 46.7467 575.616 46.48C575.883 46.2133 576.429 45.8533 577.256 45.4C578.083 44.9467 578.803 44.72 579.416 44.72C580.056 44.72 580.589 44.76 581.016 44.84C581.443 44.8933 581.909 45 582.416 45.16ZM605.486 52.96C605.486 54.5867 605.073 55.8 604.246 56.6C603.446 57.3733 602.553 57.76 601.566 57.76H592.086C592.086 58.5067 592.526 59.1333 593.406 59.64C594.286 60.1467 595.166 60.4 596.046 60.4C597.593 60.4 598.806 60.24 599.686 59.92L600.126 59.76C600.766 59.4667 601.3 59.32 601.726 59.32C602.58 59.32 603.313 59.92 603.926 61.12C604.273 61.84 604.446 62.4533 604.446 62.96C604.446 65.3333 601.606 66.52 595.926 66.52C593.953 66.52 592.193 66.1867 590.646 65.52C589.126 64.8267 587.94 63.92 587.086 62.8C585.406 60.64 584.566 58.2267 584.566 55.56C584.566 52.2 585.646 49.52 587.806 47.52C589.993 45.4933 592.713 44.48 595.966 44.48C599.673 44.48 602.393 45.7867 604.126 48.4C605.033 49.7867 605.486 51.3067 605.486 52.96ZM597.046 54.12C598.06 54.12 598.566 53.6933 598.566 52.84C598.566 52.2267 598.326 51.7333 597.846 51.36C597.393 50.9867 596.726 50.8 595.846 50.8C594.993 50.8 594.14 51.16 593.286 51.88C592.433 52.5733 592.006 53.32 592.006 54.12H597.046ZM212.414 84.84C214.201 85.48 215.094 86.3333 215.094 87.4C215.094 87.7467 214.934 88.4 214.614 89.36L206.934 111.56C206.881 111.747 206.788 111.973 206.654 112.24C206.521 112.507 206.161 112.867 205.574 113.32C205.014 113.747 204.334 113.96 203.534 113.96C202.761 113.96 202.081 113.747 201.494 113.32C200.934 112.867 200.561 112.427 200.374 112L195.694 98.2C192.734 106.947 191.228 111.4 191.174 111.56C191.121 111.72 191.001 111.947 190.814 112.24C190.628 112.533 190.414 112.8 190.174 113.04C189.561 113.653 188.828 113.96 187.974 113.96C187.121 113.96 186.414 113.76 185.854 113.36C185.321 112.96 184.961 112.56 184.774 112.16L184.494 111.56L176.774 89.36C176.481 88.48 176.334 87.8267 176.334 87.4C176.334 86.3333 177.228 85.4933 179.014 84.88C179.788 84.6133 180.481 84.48 181.094 84.48C181.734 84.48 182.214 84.6933 182.534 85.12C182.881 85.5467 183.188 86.2 183.454 87.08L187.854 100.44L192.214 87.28C192.588 86.16 193.268 85.3867 194.254 84.96C194.681 84.7733 195.228 84.68 195.894 84.68C196.588 84.68 197.228 84.9067 197.814 85.36C198.401 85.7867 198.774 86.2133 198.934 86.64L203.534 100.52L207.934 87.08C208.148 86.4667 208.321 86.0133 208.454 85.72C208.588 85.4267 208.828 85.1467 209.174 84.88C209.548 84.5867 210.001 84.44 210.534 84.44C211.068 84.44 211.694 84.5733 212.414 84.84ZM216.084 96.44C216.084 95.8267 216.098 95.3733 216.124 95.08C216.178 94.76 216.298 94.4 216.484 94C216.858 93.3067 217.898 92.96 219.604 92.96C220.884 92.96 221.791 93.1867 222.324 93.64C222.778 94.0133 223.018 94.5867 223.044 95.36C223.071 95.6267 223.084 96.0133 223.084 96.52V110.52C223.084 111.133 223.058 111.6 223.004 111.92C222.978 112.213 222.858 112.56 222.644 112.96C222.298 113.653 221.271 114 219.564 114C217.884 114 216.858 113.64 216.484 112.92C216.298 112.52 216.178 112.173 216.124 111.88C216.098 111.587 216.084 111.12 216.084 110.48V96.44ZM222.644 89.04C222.458 89.4133 222.111 89.68 221.604 89.84C221.098 90 220.418 90.08 219.564 90.08C218.738 90.08 218.071 90 217.564 89.84C217.058 89.68 216.698 89.4 216.484 89C216.298 88.6 216.178 88.2533 216.124 87.96C216.098 87.64 216.084 87.1733 216.084 86.56C216.084 85.9467 216.098 85.4933 216.124 85.2C216.178 84.88 216.298 84.5333 216.484 84.16C216.858 83.44 217.898 83.08 219.604 83.08C221.284 83.08 222.298 83.44 222.644 84.16C222.858 84.56 222.978 84.92 223.004 85.24C223.058 85.5333 223.084 85.9867 223.084 86.6C223.084 87.2133 223.058 87.68 223.004 88C222.978 88.2933 222.858 88.64 222.644 89.04ZM238.52 100L235.92 99.84V105.36C235.92 106.08 236.026 106.6 236.24 106.92C236.48 107.24 236.906 107.4 237.52 107.4C238.16 107.4 238.64 107.427 238.96 107.48C239.306 107.507 239.666 107.627 240.04 107.84C240.653 108.187 240.96 109.08 240.96 110.52C240.96 112.2 240.586 113.227 239.84 113.6C239.44 113.787 239.08 113.907 238.76 113.96C238.466 113.987 238.026 114 237.44 114C234.666 114 232.56 113.373 231.12 112.12C229.68 110.867 228.96 108.747 228.96 105.76V99.84C228.453 99.92 227.906 99.96 227.32 99.96C226.733 99.96 226.24 99.7333 225.84 99.28C225.466 98.8267 225.28 98.0533 225.28 96.96C225.28 95.8667 225.346 95.08 225.48 94.6C225.613 94.0933 225.8 93.7333 226.04 93.52C226.466 93.1733 227 93 227.64 93L228.96 93.16V89.04C228.96 88.4267 228.973 87.9733 229 87.68C229.053 87.3867 229.186 87.0667 229.4 86.72C229.746 86.0533 230.773 85.72 232.48 85.72C234.293 85.72 235.373 86.2133 235.72 87.2C235.853 87.6267 235.92 88.3067 235.92 89.24V93.16C237.093 93.0533 237.973 93 238.56 93C239.173 93 239.626 93.0267 239.92 93.08C240.24 93.1067 240.6 93.2267 241 93.44C241.693 93.7867 242.04 94.8133 242.04 96.52C242.04 98.2 241.68 99.2267 240.96 99.6C240.56 99.7867 240.2 99.9067 239.88 99.96C239.586 99.9867 239.133 100 238.52 100ZM255.928 93C258.595 93 260.808 94.0133 262.568 96.04C264.355 98.0667 265.248 100.547 265.248 103.48V110.52C265.248 111.133 265.222 111.6 265.168 111.92C265.142 112.213 265.022 112.56 264.808 112.96C264.462 113.653 263.435 114 261.728 114C260.102 114 259.088 113.653 258.688 112.96C258.475 112.56 258.342 112.2 258.288 111.88C258.262 111.56 258.248 111.08 258.248 110.44V103.44C258.248 102.347 257.942 101.493 257.328 100.88C256.715 100.267 255.928 99.96 254.968 99.96C254.035 99.96 253.208 100.253 252.488 100.84C251.768 101.4 251.355 102.04 251.248 102.76V110.52C251.248 111.133 251.222 111.6 251.168 111.92C251.142 112.213 251.022 112.56 250.808 112.96C250.462 113.653 249.435 114 247.728 114C246.048 114 245.022 113.64 244.648 112.92C244.462 112.52 244.342 112.173 244.288 111.88C244.262 111.587 244.248 111.12 244.248 110.48V86.56C244.248 85.9467 244.262 85.4933 244.288 85.2C244.342 84.88 244.462 84.5333 244.648 84.16C245.022 83.44 246.062 83.08 247.768 83.08C249.448 83.08 250.462 83.44 250.808 84.16C251.022 84.56 251.142 84.92 251.168 85.24C251.222 85.5333 251.248 85.9867 251.248 86.6V95.44C252.582 93.8133 254.142 93 255.928 93ZM282.144 84.64L289.544 84.68C293.411 84.68 296.811 86.08 299.744 88.88C302.678 91.6533 304.144 95.08 304.144 99.16C304.144 103.213 302.704 106.693 299.824 109.6C296.971 112.507 293.504 113.96 289.424 113.96H282.104C280.478 113.96 279.464 113.627 279.064 112.96C278.744 112.4 278.584 111.547 278.584 110.4V88.16C278.584 87.52 278.598 87.0533 278.624 86.76C278.678 86.4667 278.811 86.12 279.024 85.72C279.398 85 280.438 84.64 282.144 84.64ZM289.544 106.88C291.464 106.88 293.198 106.173 294.744 104.76C296.291 103.32 297.064 101.52 297.064 99.36C297.064 97.2 296.304 95.4 294.784 93.96C293.291 92.4933 291.531 91.76 289.504 91.76H285.664V106.88H289.544ZM320.428 95.16C320.588 93.6667 321.642 92.92 323.588 92.92C324.628 92.92 325.402 93 325.908 93.16C326.415 93.32 326.762 93.6 326.948 94C327.162 94.4 327.282 94.76 327.308 95.08C327.362 95.3733 327.388 95.8267 327.388 96.44V110.44C327.388 111.053 327.362 111.52 327.308 111.84C327.282 112.133 327.175 112.48 326.988 112.88C326.615 113.573 325.695 113.92 324.228 113.92C322.788 113.92 321.815 113.747 321.308 113.4C320.828 113.027 320.548 112.493 320.468 111.8C319.482 113.213 317.828 113.92 315.508 113.92C313.215 113.92 311.082 112.867 309.108 110.76C307.135 108.653 306.148 106.213 306.148 103.44C306.148 100.64 307.135 98.2 309.108 96.12C311.108 94.0133 313.295 92.96 315.668 92.96C316.575 92.96 317.402 93.12 318.148 93.44C318.895 93.76 319.415 94.0667 319.708 94.36C320.002 94.6267 320.242 94.8933 320.428 95.16ZM313.148 103.48C313.148 104.36 313.495 105.16 314.188 105.88C314.882 106.573 315.722 106.92 316.708 106.92C317.695 106.92 318.508 106.56 319.148 105.84C319.815 105.12 320.148 104.333 320.148 103.48C320.148 102.6 319.828 101.787 319.188 101.04C318.575 100.293 317.735 99.92 316.668 99.92C315.628 99.92 314.775 100.293 314.108 101.04C313.468 101.787 313.148 102.6 313.148 103.48ZM342.817 100L340.217 99.84V105.36C340.217 106.08 340.323 106.6 340.537 106.92C340.777 107.24 341.203 107.4 341.817 107.4C342.457 107.4 342.937 107.427 343.257 107.48C343.603 107.507 343.963 107.627 344.337 107.84C344.95 108.187 345.257 109.08 345.257 110.52C345.257 112.2 344.883 113.227 344.137 113.6C343.737 113.787 343.377 113.907 343.057 113.96C342.763 113.987 342.323 114 341.737 114C338.963 114 336.857 113.373 335.417 112.12C333.977 110.867 333.257 108.747 333.257 105.76V99.84C332.75 99.92 332.203 99.96 331.617 99.96C331.03 99.96 330.537 99.7333 330.137 99.28C329.763 98.8267 329.577 98.0533 329.577 96.96C329.577 95.8667 329.643 95.08 329.777 94.6C329.91 94.0933 330.097 93.7333 330.337 93.52C330.763 93.1733 331.297 93 331.937 93L333.257 93.16V89.04C333.257 88.4267 333.27 87.9733 333.297 87.68C333.35 87.3867 333.483 87.0667 333.697 86.72C334.043 86.0533 335.07 85.72 336.777 85.72C338.59 85.72 339.67 86.2133 340.017 87.2C340.15 87.6267 340.217 88.3067 340.217 89.24V93.16C341.39 93.0533 342.27 93 342.857 93C343.47 93 343.923 93.0267 344.217 93.08C344.537 93.1067 344.897 93.2267 345.297 93.44C345.99 93.7867 346.337 94.8133 346.337 96.52C346.337 98.2 345.977 99.2267 345.257 99.6C344.857 99.7867 344.497 99.9067 344.177 99.96C343.883 99.9867 343.43 100 342.817 100ZM362.225 95.16C362.385 93.6667 363.439 92.92 365.385 92.92C366.425 92.92 367.199 93 367.705 93.16C368.212 93.32 368.559 93.6 368.745 94C368.959 94.4 369.079 94.76 369.105 95.08C369.159 95.3733 369.185 95.8267 369.185 96.44V110.44C369.185 111.053 369.159 111.52 369.105 111.84C369.079 112.133 368.972 112.48 368.785 112.88C368.412 113.573 367.492 113.92 366.025 113.92C364.585 113.92 363.612 113.747 363.105 113.4C362.625 113.027 362.345 112.493 362.265 111.8C361.279 113.213 359.625 113.92 357.305 113.92C355.012 113.92 352.879 112.867 350.905 110.76C348.932 108.653 347.945 106.213 347.945 103.44C347.945 100.64 348.932 98.2 350.905 96.12C352.905 94.0133 355.092 92.96 357.465 92.96C358.372 92.96 359.199 93.12 359.945 93.44C360.692 93.76 361.212 94.0667 361.505 94.36C361.799 94.6267 362.039 94.8933 362.225 95.16ZM354.945 103.48C354.945 104.36 355.292 105.16 355.985 105.88C356.679 106.573 357.519 106.92 358.505 106.92C359.492 106.92 360.305 106.56 360.945 105.84C361.612 105.12 361.945 104.333 361.945 103.48C361.945 102.6 361.625 101.787 360.985 101.04C360.372 100.293 359.532 99.92 358.465 99.92C357.425 99.92 356.572 100.293 355.905 101.04C355.265 101.787 354.945 102.6 354.945 103.48ZM382.931 109.88C382.237 109.027 381.891 108.267 381.891 107.6C381.891 106.907 382.464 106 383.611 104.88C384.277 104.24 384.984 103.92 385.731 103.92C386.477 103.92 387.517 104.587 388.851 105.92C389.224 106.373 389.757 106.813 390.451 107.24C391.144 107.64 391.784 107.84 392.371 107.84C394.851 107.84 396.091 106.827 396.091 104.8C396.091 104.187 395.744 103.68 395.051 103.28C394.384 102.853 393.544 102.547 392.531 102.36C391.517 102.173 390.424 101.88 389.251 101.48C388.077 101.053 386.984 100.56 385.971 100C384.957 99.44 384.104 98.56 383.411 97.36C382.744 96.1333 382.411 94.6667 382.411 92.96C382.411 90.6133 383.277 88.5733 385.011 86.84C386.771 85.08 389.157 84.2 392.171 84.2C393.771 84.2 395.224 84.4133 396.531 84.84C397.864 85.24 398.784 85.6533 399.291 86.08L400.291 86.84C401.117 87.6133 401.531 88.2667 401.531 88.8C401.531 89.3333 401.211 90.0667 400.571 91C399.664 92.3333 398.731 93 397.771 93C397.211 93 396.517 92.7333 395.691 92.2C395.611 92.1467 395.451 92.0133 395.211 91.8C394.997 91.5867 394.797 91.4133 394.611 91.28C394.051 90.9333 393.331 90.76 392.451 90.76C391.597 90.76 390.877 90.9733 390.291 91.4C389.731 91.8 389.451 92.3733 389.451 93.12C389.451 93.84 389.784 94.4267 390.451 94.88C391.144 95.3333 391.997 95.64 393.011 95.8C394.024 95.96 395.131 96.2133 396.331 96.56C397.531 96.88 398.637 97.28 399.651 97.76C400.664 98.24 401.504 99.08 402.171 100.28C402.864 101.453 403.211 102.907 403.211 104.64C403.211 106.373 402.864 107.907 402.171 109.24C401.477 110.547 400.571 111.56 399.451 112.28C397.291 113.693 394.984 114.4 392.531 114.4C391.277 114.4 390.091 114.253 388.971 113.96C387.851 113.64 386.944 113.253 386.251 112.8C384.837 111.947 383.851 111.12 383.291 110.32L382.931 109.88ZM412.411 103.48C412.411 104.6 412.784 105.48 413.531 106.12C414.278 106.733 415.064 107.04 415.891 107.04C416.744 107.04 417.531 106.8 418.251 106.32C418.998 105.813 419.598 105.56 420.051 105.56C420.851 105.56 421.824 106.267 422.971 107.68C423.584 108.453 423.891 109.147 423.891 109.76C423.891 110.773 423.158 111.72 421.691 112.6C420.171 113.667 418.304 114.2 416.091 114.2C413.611 114.2 411.224 113.307 408.931 111.52C407.838 110.667 406.944 109.533 406.251 108.12C405.558 106.68 405.211 105.107 405.211 103.4C405.211 101.667 405.558 100.107 406.251 98.72C406.944 97.3067 407.838 96.1733 408.931 95.32C411.144 93.56 413.504 92.68 416.011 92.68C417.024 92.68 418.011 92.8267 418.971 93.12C419.931 93.3867 420.638 93.6533 421.091 93.92L421.731 94.32C422.211 94.64 422.584 94.8933 422.851 95.08C423.544 95.6133 423.891 96.2267 423.891 96.92C423.891 97.5867 423.611 98.3467 423.051 99.2C422.091 100.667 421.171 101.4 420.291 101.4C419.784 101.4 419.064 101.107 418.131 100.52C417.651 100.067 416.958 99.84 416.051 99.84C415.171 99.84 414.344 100.16 413.571 100.8C412.798 101.44 412.411 102.333 412.411 103.48ZM426.475 96.44C426.475 95.8267 426.488 95.3733 426.515 95.08C426.568 94.76 426.688 94.4 426.875 94C427.248 93.3067 428.288 92.96 429.995 92.96C431.275 92.96 432.182 93.1867 432.715 93.64C433.168 94.0133 433.408 94.5867 433.435 95.36C433.462 95.6267 433.475 96.0133 433.475 96.52V110.52C433.475 111.133 433.448 111.6 433.395 111.92C433.368 112.213 433.248 112.56 433.035 112.96C432.688 113.653 431.662 114 429.955 114C428.275 114 427.248 113.64 426.875 112.92C426.688 112.52 426.568 112.173 426.515 111.88C426.488 111.587 426.475 111.12 426.475 110.48V96.44ZM433.035 89.04C432.848 89.4133 432.502 89.68 431.995 89.84C431.488 90 430.808 90.08 429.955 90.08C429.128 90.08 428.462 90 427.955 89.84C427.448 89.68 427.088 89.4 426.875 89C426.688 88.6 426.568 88.2533 426.515 87.96C426.488 87.64 426.475 87.1733 426.475 86.56C426.475 85.9467 426.488 85.4933 426.515 85.2C426.568 84.88 426.688 84.5333 426.875 84.16C427.248 83.44 428.288 83.08 429.995 83.08C431.675 83.08 432.688 83.44 433.035 84.16C433.248 84.56 433.368 84.92 433.395 85.24C433.448 85.5333 433.475 85.9867 433.475 86.6C433.475 87.2133 433.448 87.68 433.395 88C433.368 88.2933 433.248 88.64 433.035 89.04ZM456.99 100.96C456.99 102.587 456.577 103.8 455.75 104.6C454.95 105.373 454.057 105.76 453.07 105.76H443.59C443.59 106.507 444.03 107.133 444.91 107.64C445.79 108.147 446.67 108.4 447.55 108.4C449.097 108.4 450.31 108.24 451.19 107.92L451.63 107.76C452.27 107.467 452.804 107.32 453.23 107.32C454.084 107.32 454.817 107.92 455.43 109.12C455.777 109.84 455.95 110.453 455.95 110.96C455.95 113.333 453.11 114.52 447.43 114.52C445.457 114.52 443.697 114.187 442.15 113.52C440.63 112.827 439.444 111.92 438.59 110.8C436.91 108.64 436.07 106.227 436.07 103.56C436.07 100.2 437.15 97.52 439.31 95.52C441.497 93.4933 444.217 92.48 447.47 92.48C451.177 92.48 453.897 93.7867 455.63 96.4C456.537 97.7867 456.99 99.3067 456.99 100.96ZM448.55 102.12C449.564 102.12 450.07 101.693 450.07 100.84C450.07 100.227 449.83 99.7333 449.35 99.36C448.897 98.9867 448.23 98.8 447.35 98.8C446.497 98.8 445.644 99.16 444.79 99.88C443.937 100.573 443.51 101.32 443.51 102.12H448.55ZM471.32 92.92C473.987 92.92 476.2 93.9467 477.96 96C479.747 98.0267 480.64 100.507 480.64 103.44V110.48C480.64 111.093 480.613 111.56 480.56 111.88C480.533 112.173 480.427 112.507 480.24 112.88C479.867 113.6 478.827 113.96 477.12 113.96C475.227 113.96 474.133 113.467 473.84 112.48C473.68 112.027 473.6 111.347 473.6 110.44V103.4C473.6 102.307 473.28 101.453 472.64 100.84C472.027 100.227 471.187 99.92 470.12 99.92C469.08 99.92 468.227 100.24 467.56 100.88C466.92 101.52 466.6 102.36 466.6 103.4V110.48C466.6 111.093 466.573 111.56 466.52 111.88C466.493 112.173 466.373 112.507 466.16 112.88C465.813 113.6 464.787 113.96 463.08 113.96C461.4 113.96 460.373 113.6 460 112.88C459.813 112.48 459.693 112.133 459.64 111.84C459.613 111.52 459.6 111.053 459.6 110.44V96.28C459.6 95.6933 459.613 95.2533 459.64 94.96C459.693 94.64 459.827 94.2933 460.04 93.92C460.413 93.2533 461.44 92.92 463.12 92.92C464.747 92.92 465.747 93.2267 466.12 93.84C466.387 94.2933 466.52 94.84 466.52 95.48C466.627 95.2933 466.867 95.0267 467.24 94.68C467.613 94.3333 467.973 94.0533 468.32 93.84C469.227 93.2267 470.227 92.92 471.32 92.92ZM490.458 103.48C490.458 104.6 490.831 105.48 491.578 106.12C492.324 106.733 493.111 107.04 493.938 107.04C494.791 107.04 495.578 106.8 496.298 106.32C497.044 105.813 497.644 105.56 498.098 105.56C498.898 105.56 499.871 106.267 501.018 107.68C501.631 108.453 501.938 109.147 501.938 109.76C501.938 110.773 501.204 111.72 499.738 112.6C498.218 113.667 496.351 114.2 494.138 114.2C491.658 114.2 489.271 113.307 486.978 111.52C485.884 110.667 484.991 109.533 484.298 108.12C483.604 106.68 483.258 105.107 483.258 103.4C483.258 101.667 483.604 100.107 484.298 98.72C484.991 97.3067 485.884 96.1733 486.978 95.32C489.191 93.56 491.551 92.68 494.058 92.68C495.071 92.68 496.058 92.8267 497.018 93.12C497.978 93.3867 498.684 93.6533 499.138 93.92L499.778 94.32C500.258 94.64 500.631 94.8933 500.898 95.08C501.591 95.6133 501.938 96.2267 501.938 96.92C501.938 97.5867 501.658 98.3467 501.098 99.2C500.138 100.667 499.218 101.4 498.338 101.4C497.831 101.4 497.111 101.107 496.178 100.52C495.698 100.067 495.004 99.84 494.098 99.84C493.218 99.84 492.391 100.16 491.618 100.8C490.844 101.44 490.458 102.333 490.458 103.48ZM524.256 100.96C524.256 102.587 523.843 103.8 523.016 104.6C522.216 105.373 521.323 105.76 520.336 105.76H510.856C510.856 106.507 511.296 107.133 512.176 107.64C513.056 108.147 513.936 108.4 514.816 108.4C516.363 108.4 517.576 108.24 518.456 107.92L518.896 107.76C519.536 107.467 520.069 107.32 520.496 107.32C521.349 107.32 522.083 107.92 522.696 109.12C523.043 109.84 523.216 110.453 523.216 110.96C523.216 113.333 520.376 114.52 514.696 114.52C512.723 114.52 510.963 114.187 509.416 113.52C507.896 112.827 506.709 111.92 505.856 110.8C504.176 108.64 503.336 106.227 503.336 103.56C503.336 100.2 504.416 97.52 506.576 95.52C508.763 93.4933 511.483 92.48 514.736 92.48C518.443 92.48 521.163 93.7867 522.896 96.4C523.803 97.7867 524.256 99.3067 524.256 100.96ZM515.816 102.12C516.829 102.12 517.336 101.693 517.336 100.84C517.336 100.227 517.096 99.7333 516.616 99.36C516.163 98.9867 515.496 98.8 514.616 98.8C513.763 98.8 512.909 99.16 512.056 99.88C511.203 100.573 510.776 101.32 510.776 102.12H515.816Z" fill="white"/>
<path d="M16.1111 21.2717C19.0648 21.5376 21.3025 22.4239 22.8241 23.9306C24.3457 25.4374 25.1065 28.0077 25.1065 31.6416V33.6358C25.1065 35.763 25.017 37.3584 24.838 38.422C24.7485 39.4855 24.3457 40.7264 23.6296 42.1445C22.287 44.7148 18.8858 46 13.4259 46C7.96605 46 4.34105 45.1137 2.55093 43.341C0.850309 41.5684 0 38.2004 0 33.237C0 31.0212 0.0895063 29.3815 0.268519 28.3179C0.895062 20.5183 3.22222 13.8709 7.25 8.37572C11.2778 2.79191 16.3796 0 22.5556 0C23.1821 0 23.7191 0.487473 24.1667 1.46242C24.7037 2.34875 24.9722 3.54528 24.9722 5.05202C24.9722 6.47014 24.7485 7.62235 24.3009 8.50867C23.9429 9.39499 23.4954 9.92678 22.9583 10.104C22.5108 10.1927 22.1528 10.2813 21.8843 10.3699C21.6157 10.3699 21.1235 10.5915 20.4074 11.0347C19.7809 11.3892 19.1991 11.921 18.662 12.6301C17.1404 14.4027 16.2901 17.2832 16.1111 21.2717ZM48.8704 21.2717C51.8241 21.5376 54.0617 22.4682 55.5833 24.0636C57.1944 25.5703 58 28.7611 58 33.6358C58 38.8651 57.0602 42.1888 55.1806 43.6069C52.9429 45.2023 49.4969 46 44.8426 46C40.2778 46 37.1003 45.1137 35.3102 43.341C33.6096 41.5684 32.7593 38.2004 32.7593 33.237C32.7593 31.0212 32.8488 29.3815 33.0278 28.3179C33.6543 20.5183 35.9815 13.8709 40.0093 8.37572C44.1265 2.79191 49.2731 0 55.4491 0C56.0756 0 56.6127 0.487473 57.0602 1.46242C57.5972 2.34875 57.8657 3.54528 57.8657 5.05202C57.8657 6.47014 57.642 7.62235 57.1944 8.50867C56.8364 9.39499 56.3889 9.92678 55.8519 10.104C55.4043 10.1927 55.0463 10.2813 54.7778 10.3699C54.5093 10.3699 54.017 10.5915 53.3009 11.0347C52.5849 11.3892 51.9583 11.921 51.4213 12.6301C49.8997 14.4027 49.0494 17.2832 48.8704 21.2717Z" fill="#85D4BE"/>
<path d="M684.889 138.728C681.935 138.462 679.698 137.576 678.176 136.069C676.654 134.563 675.894 131.992 675.894 128.358V126.364C675.894 124.237 675.983 122.642 676.162 121.578C676.252 120.514 676.654 119.274 677.37 117.855C678.713 115.285 682.114 114 687.574 114C693.034 114 696.659 114.886 698.449 116.659C700.15 118.432 701 121.8 701 126.763C701 128.979 700.91 130.618 700.731 131.682C700.105 139.482 697.778 146.129 693.75 151.624C689.722 157.208 684.62 160 678.444 160C677.818 160 677.281 159.513 676.833 158.538C676.296 157.651 676.028 156.455 676.028 154.948C676.028 153.53 676.252 152.378 676.699 151.491C677.057 150.605 677.505 150.073 678.042 149.896C678.489 149.807 678.847 149.719 679.116 149.63C679.384 149.63 679.877 149.408 680.593 148.965C681.219 148.611 681.801 148.079 682.338 147.37C683.86 145.597 684.71 142.717 684.889 138.728ZM652.13 138.728C649.176 138.462 646.938 137.532 645.417 135.936C643.806 134.43 643 131.239 643 126.364C643 121.135 643.94 117.811 645.819 116.393C648.057 114.798 651.503 114 656.157 114C660.722 114 663.9 114.886 665.69 116.659C667.39 118.432 668.241 121.8 668.241 126.763C668.241 128.979 668.151 130.618 667.972 131.682C667.346 139.482 665.019 146.129 660.991 151.624C656.873 157.208 651.727 160 645.551 160C644.924 160 644.387 159.513 643.94 158.538C643.403 157.651 643.134 156.455 643.134 154.948C643.134 153.53 643.358 152.378 643.806 151.491C644.164 150.605 644.611 150.073 645.148 149.896C645.596 149.807 645.954 149.719 646.222 149.63C646.491 149.63 646.983 149.408 647.699 148.965C648.415 148.611 649.042 148.079 649.579 147.37C651.1 145.597 651.951 142.717 652.13 138.728Z" fill="#85D4BE"/>
</svg>
