<svg width="1440" height="167" viewBox="0 0 1440 167" fill="none" xmlns="http://www.w3.org/2000/svg">
<path d="M0.0926539 664.853C-1.48391 679.719 16.4559 710.681 100.455 715.547C189.136 720.683 200.894 736.665 212.095 751.889C214.156 754.691 216.199 757.466 218.698 760.144C234.779 777.375 260.319 794.606 350.184 780.923C440.048 767.239 528.02 762.678 595.182 795.113C648.912 821.061 700.923 824 720.046 824C739.17 824 791.181 821.061 844.91 795.113C912.072 762.678 1000.04 767.239 1089.91 780.923C1179.77 794.606 1205.31 777.375 1221.39 760.144C1223.89 757.466 1225.94 754.691 1228 751.889C1239.2 736.665 1250.96 720.683 1339.64 715.547C1423.64 710.681 1441.48 679.733 1439.91 664.868V0H1438.75C1433.37 15.8557 1409.17 37.7543 1339.64 41.7815C1250.96 46.9179 1239.2 62.8994 1228 78.1239C1225.94 80.9254 1223.89 83.7013 1221.39 86.3792C1205.31 103.61 1179.77 120.841 1089.91 107.158C1000.04 93.4742 912.072 88.9132 844.91 121.348C791.181 147.295 739.17 150.235 720.046 150.235C700.923 150.235 648.912 147.295 595.182 121.348C528.02 88.9132 440.048 93.4742 350.184 107.158C260.319 120.841 234.779 103.61 218.698 86.3792C216.199 83.7013 214.156 80.9254 212.095 78.1239C200.894 62.8994 189.136 46.9179 100.455 41.7815C30.9243 37.7543 6.71976 15.8557 1.3386 0H0.185715L0.0926539 664.853Z" fill="#AEE6CB"/>
</svg>
