<svg width="503" height="445" viewBox="0 0 503 445" fill="none" xmlns="http://www.w3.org/2000/svg">
<path opacity="0.02" d="M55.7207 345.971C34.0099 377.814 6.67836 372.814 -4.27353 366.334L-174.74 278.054L134.046 -300.526L304.513 -212.246C316.141 -207.033 335.817 -187.689 321.496 -152.019C303.595 -107.431 320.369 -100.2 330.006 -86.9601C339.643 -73.7207 347.251 -56.6798 317.586 -25.9478C287.92 4.78426 265.588 38.3438 275.816 78.0908C283.999 109.888 275.076 131.946 270.974 139.631C266.873 147.316 253.485 167.062 222.255 178.449C183.218 192.683 167.814 229.83 158.932 271.325C150.05 312.821 131.486 316.308 114.951 315.993C98.4158 315.679 82.8592 306.167 55.7207 345.971Z" fill="black"/>
<path d="M18.8788 314.164C-5.87916 336.996 -28.0729 327.465 -36.0751 319.845L-163.134 211.934L214.005 -219.481L341.064 -111.569C349.892 -104.894 362.735 -84.6679 343.486 -57.1582C319.423 -22.7712 332.216 -13.3884 337.757 -0.285652C343.299 12.8171 346.362 28.7544 315.076 49.1038C283.79 69.4533 258.164 93.6215 258.931 129.34C259.544 157.915 247.584 174.913 242.574 180.644C237.565 186.374 222.277 200.546 193.514 204.172C157.56 208.703 137.098 237.257 121.303 270.764C105.509 304.27 89.0644 303.639 75.0981 300.174C61.1317 296.709 49.8262 285.625 18.8788 314.164Z" fill="black"/>
<path d="M18.8788 314.164C-5.87916 336.996 -28.0729 327.465 -36.0751 319.845L-163.134 211.934L214.005 -219.481L341.064 -111.569C349.892 -104.894 362.735 -84.6679 343.486 -57.1582C319.423 -22.7712 332.216 -13.3884 337.757 -0.285652C343.299 12.8171 346.362 28.7544 315.076 49.1038C283.79 69.4533 258.164 93.6215 258.931 129.34C259.544 157.915 247.584 174.913 242.574 180.644C237.565 186.374 222.277 200.546 193.514 204.172C157.56 208.703 137.098 237.257 121.303 270.764C105.509 304.27 89.0644 303.639 75.0981 300.174C61.1317 296.709 49.8262 285.625 18.8788 314.164Z" fill="url(#paint0_linear_4211_3900)"/>
<path d="M-171.242 291.442C-203.596 301.397 -219.365 283.294 -223.205 272.998L-289.948 121.297L239.795 -105.692L306.537 46.0099C311.538 55.8085 314.174 79.5388 284.713 96.0705C247.887 116.735 255.26 130.673 254.467 144.854C253.674 159.036 249.4 174.708 212.266 179.628C175.131 184.548 141.406 195.335 126.338 227.845C114.284 253.853 96.021 264.04 88.9845 267.055C81.9479 270.07 61.9365 276.284 34.4513 267.218C0.0946951 255.885 -30.9184 272.838 -59.915 296.254C-88.9117 319.67 -103.433 312.051 -114.473 302.941C-125.514 293.831 -130.799 278.997 -171.242 291.442Z" fill="black"/>
<path d="M-171.242 291.442C-203.596 301.397 -219.365 283.294 -223.205 272.998L-289.948 121.297L239.795 -105.692L306.537 46.0099C311.538 55.8085 314.174 79.5388 284.713 96.0705C247.887 116.735 255.26 130.673 254.467 144.854C253.674 159.036 249.4 174.708 212.266 179.628C175.131 184.548 141.406 195.335 126.338 227.845C114.284 253.853 96.021 264.04 88.9845 267.055C81.9479 270.07 61.9365 276.284 34.4513 267.218C0.0946951 255.885 -30.9184 272.838 -59.915 296.254C-88.9117 319.67 -103.433 312.051 -114.473 302.941C-125.514 293.831 -130.799 278.997 -171.242 291.442Z" fill="url(#paint1_linear_4211_3900)"/>
<path d="M-27.0905 225.316C-57.525 240.031 -75.92 224.522 -81.3132 214.928L-170.819 75.1017L317.565 -229.054L364.458 -189.158C370.921 -180.23 377.207 -157.18 350.653 -136.404C317.46 -110.433 326.91 -97.7729 328.326 -83.6416C329.743 -69.5103 356.998 28.3389 332.05 57.1117C307.694 85.2006 267.021 83.2142 257.173 117.608C249.293 145.123 232.822 157.942 226.335 161.982C219.848 166.022 201.033 175.179 172.459 170.366C136.743 164.349 108.72 185.776 83.6922 213.285C58.6648 240.793 43.1299 235.455 30.8038 228.118C18.4777 220.781 10.9526 206.922 -27.0905 225.316Z" fill="black"/>
<path d="M-27.0905 225.316C-57.525 240.031 -75.92 224.522 -81.3132 214.928L-170.819 75.1017L317.565 -229.054L364.458 -189.158C370.921 -180.23 377.207 -157.18 350.653 -136.404C317.46 -110.433 326.91 -97.7729 328.326 -83.6416C329.743 -69.5103 356.998 28.3389 332.05 57.1117C307.694 85.2006 267.021 83.2142 257.173 117.608C249.293 145.123 232.822 157.942 226.335 161.982C219.848 166.022 201.033 175.179 172.459 170.366C136.743 164.349 108.72 185.776 83.6922 213.285C58.6648 240.793 43.1299 235.455 30.8038 228.118C18.4777 220.781 10.9526 206.922 -27.0905 225.316Z" fill="url(#paint2_linear_4211_3900)"/>
<defs>
<linearGradient id="paint0_linear_4211_3900" x1="-97.0364" y1="526.343" x2="288.632" y2="-0.43435" gradientUnits="userSpaceOnUse">
<stop stop-color="#DAF1DE"/>
<stop offset="0.505208" stop-color="#AEE6CB"/>
<stop offset="1" stop-color="#85D4BE"/>
</linearGradient>
<linearGradient id="paint1_linear_4211_3900" x1="-197.618" y1="262.626" x2="440.057" y2="61.4093" gradientUnits="userSpaceOnUse">
<stop stop-color="#AEE6CB"/>
<stop offset="0.0001" stop-color="#AEE6CB"/>
<stop offset="0.505208" stop-color="#96DFD8"/>
<stop offset="1" stop-color="#DAF1DE"/>
</linearGradient>
<linearGradient id="paint2_linear_4211_3900" x1="-163.001" y1="87.3845" x2="533.244" y2="-14.9641" gradientUnits="userSpaceOnUse">
<stop stop-color="#85D4BE"/>
<stop offset="0.505208" stop-color="#85D4BE"/>
<stop offset="1" stop-color="#DAF1DE"/>
</linearGradient>
</defs>
</svg>
