<svg width="496" height="445" viewBox="0 0 496 445" fill="none" xmlns="http://www.w3.org/2000/svg">
<path opacity="0.02" d="M446.474 345.971C468.184 377.814 495.516 372.814 506.468 366.334L676.934 278.054L368.148 -300.526L197.682 -212.246C186.054 -207.033 166.378 -187.689 180.699 -152.019C198.6 -107.431 181.826 -100.2 172.189 -86.9601C162.551 -73.7207 154.943 -56.6798 184.609 -25.9478C214.275 4.78426 236.607 38.3438 226.378 78.0908C218.196 109.888 227.119 131.946 231.22 139.631C235.322 147.316 248.709 167.062 279.939 178.449C318.977 192.683 334.381 229.83 343.262 271.325C352.144 312.821 370.708 316.308 387.243 315.993C403.779 315.679 419.335 306.167 446.474 345.971Z" fill="black"/>
<path d="M483.316 314.164C508.074 336.996 530.267 327.465 538.269 319.845L665.328 211.934L288.19 -219.481L161.131 -111.569C152.303 -104.894 139.459 -84.6679 158.709 -57.1582C182.771 -22.7712 169.979 -13.3884 164.437 -0.285652C158.896 12.8171 155.832 28.7544 187.118 49.1038C218.404 69.4533 244.031 93.6215 243.264 129.34C242.65 157.915 254.61 174.913 259.62 180.644C264.629 186.374 279.918 200.546 308.681 204.172C344.634 208.703 365.097 237.257 380.891 270.764C396.686 304.27 413.13 303.639 427.096 300.174C441.063 296.709 452.368 285.625 483.316 314.164Z" fill="black"/>
<path d="M483.316 314.164C508.074 336.996 530.267 327.465 538.269 319.845L665.328 211.934L288.19 -219.481L161.131 -111.569C152.303 -104.894 139.459 -84.6679 158.709 -57.1582C182.771 -22.7712 169.979 -13.3884 164.437 -0.285652C158.896 12.8171 155.832 28.7544 187.118 49.1038C218.404 69.4533 244.031 93.6215 243.264 129.34C242.65 157.915 254.61 174.913 259.62 180.644C264.629 186.374 279.918 200.546 308.681 204.172C344.634 208.703 365.097 237.257 380.891 270.764C396.686 304.27 413.13 303.639 427.096 300.174C441.063 296.709 452.368 285.625 483.316 314.164Z" fill="url(#paint0_linear_4211_3875)"/>
<path d="M673.436 291.442C705.79 301.397 721.559 283.294 725.4 272.998L792.143 121.297L262.4 -105.692L195.657 46.0099C190.656 55.8085 188.021 79.5388 217.481 96.0705C254.307 116.735 246.934 130.673 247.727 144.854C248.521 159.036 252.794 174.708 289.929 179.628C327.063 184.548 360.788 195.335 375.856 227.845C387.91 253.853 406.173 264.04 413.21 267.055C420.246 270.07 440.258 276.284 467.743 267.218C502.1 255.885 533.113 272.838 562.109 296.254C591.106 319.67 605.627 312.051 616.668 302.941C627.708 293.831 632.993 278.997 673.436 291.442Z" fill="black"/>
<path d="M673.436 291.442C705.79 301.397 721.559 283.294 725.4 272.998L792.143 121.297L262.4 -105.692L195.657 46.0099C190.656 55.8085 188.021 79.5388 217.481 96.0705C254.307 116.735 246.934 130.673 247.727 144.854C248.521 159.036 252.794 174.708 289.929 179.628C327.063 184.548 360.788 195.335 375.856 227.845C387.91 253.853 406.173 264.04 413.21 267.055C420.246 270.07 440.258 276.284 467.743 267.218C502.1 255.885 533.113 272.838 562.109 296.254C591.106 319.67 605.627 312.051 616.668 302.941C627.708 293.831 632.993 278.997 673.436 291.442Z" fill="url(#paint1_linear_4211_3875)"/>
<path d="M529.285 225.316C559.719 240.031 578.114 224.522 583.508 214.928L673.013 75.1017L184.63 -229.054L137.737 -189.158C131.274 -180.23 124.987 -157.18 151.542 -136.404C184.734 -110.433 175.284 -97.7729 173.868 -83.6416C172.452 -69.5103 145.196 28.3389 170.145 57.1117C194.5 85.2006 235.173 83.2142 245.022 117.608C252.901 145.123 269.372 157.942 275.859 161.982C282.346 166.022 301.162 175.179 329.735 170.366C365.451 164.349 393.475 185.776 418.502 213.285C443.53 240.793 459.064 235.455 471.391 228.118C483.717 220.781 491.242 206.922 529.285 225.316Z" fill="black"/>
<path d="M529.285 225.316C559.719 240.031 578.114 224.522 583.508 214.928L673.013 75.1017L184.63 -229.054L137.737 -189.158C131.274 -180.23 124.987 -157.18 151.542 -136.404C184.734 -110.433 175.284 -97.7729 173.868 -83.6416C172.452 -69.5103 145.196 28.3389 170.145 57.1117C194.5 85.2006 235.173 83.2142 245.022 117.608C252.901 145.123 269.372 157.942 275.859 161.982C282.346 166.022 301.162 175.179 329.735 170.366C365.451 164.349 393.475 185.776 418.502 213.285C443.53 240.793 459.064 235.455 471.391 228.118C483.717 220.781 491.242 206.922 529.285 225.316Z" fill="url(#paint2_linear_4211_3875)"/>
<defs>
<linearGradient id="paint0_linear_4211_3875" x1="599.231" y1="526.343" x2="213.562" y2="-0.43435" gradientUnits="userSpaceOnUse">
<stop stop-color="#DAF1DE"/>
<stop offset="0.505208" stop-color="#AEE6CB"/>
<stop offset="1" stop-color="#85D4BE"/>
</linearGradient>
<linearGradient id="paint1_linear_4211_3875" x1="699.812" y1="262.626" x2="62.1372" y2="61.4093" gradientUnits="userSpaceOnUse">
<stop stop-color="#AEE6CB"/>
<stop offset="0.0001" stop-color="#AEE6CB"/>
<stop offset="0.505208" stop-color="#96DFD8"/>
<stop offset="1" stop-color="#DAF1DE"/>
</linearGradient>
<linearGradient id="paint2_linear_4211_3875" x1="665.195" y1="87.3845" x2="-31.0495" y2="-14.9641" gradientUnits="userSpaceOnUse">
<stop stop-color="#85D4BE"/>
<stop offset="0.505208" stop-color="#85D4BE"/>
<stop offset="1" stop-color="#DAF1DE"/>
</linearGradient>
</defs>
</svg>
