<svg width="340" height="626" viewBox="0 0 340 626" fill="none" xmlns="http://www.w3.org/2000/svg">
<path d="M164.654 123.568C187.091 98.221 177.124 76.3798 169.336 68.6276L58.7821 -54.8461L-366.854 333.721L-256.3 457.195C-249.444 465.798 -228.925 478.006 -201.695 458.012C-167.658 433.019 -158.013 445.494 -144.772 450.633C-131.531 455.771 -115.493 458.357 -95.6657 426.576C-75.838 394.795 -52.0765 368.543 -16.2456 368.259C12.4192 368.032 29.2434 355.611 34.8971 350.45C40.5508 345.289 54.4795 329.635 57.5836 300.86C61.4639 264.891 89.7184 243.657 123.025 226.931C156.332 210.204 155.396 193.833 151.663 180.014C147.931 166.195 136.608 155.252 164.654 123.568Z" fill="black"/>
<path d="M164.654 123.568C187.091 98.221 177.124 76.3798 169.336 68.6276L58.7821 -54.8461L-366.854 333.721L-256.3 457.195C-249.444 465.798 -228.925 478.006 -201.695 458.012C-167.658 433.019 -158.013 445.494 -144.772 450.633C-131.531 455.771 -115.493 458.357 -95.6657 426.576C-75.838 394.795 -52.0765 368.543 -16.2456 368.259C12.4192 368.032 29.2434 355.611 34.8971 350.45C40.5508 345.289 54.4795 329.635 57.5836 300.86C61.4639 264.891 89.7184 243.657 123.025 226.931C156.332 210.204 155.396 193.833 151.663 180.014C147.931 166.195 136.608 155.252 164.654 123.568Z" fill="url(#paint0_linear_6_164)"/>
<path d="M-233.408 420.592C-265.07 433.821 -282.193 416.997 -286.797 406.932L-364.804 259.609L148.896 -21.857L226.902 125.465C232.631 134.914 237.019 158.716 208.738 178.331C173.387 202.85 181.797 216.266 182.048 230.719C182.299 245.173 179.174 261.475 142.354 270.063C105.535 278.65 72.5608 292.855 59.8694 327.274C49.7162 354.809 32.18 366.906 25.3565 370.645C18.5331 374.384 -1.04622 382.623 -29.2349 376.096C-64.4706 367.938 -94.2745 388.13 -121.583 414.68C-148.892 441.229 -163.993 434.913 -175.719 426.747C-187.445 418.582 -193.83 404.056 -233.408 420.592Z" fill="black"/>
<path d="M-233.408 420.592C-265.07 433.821 -282.193 416.997 -286.797 406.932L-364.804 259.609L148.896 -21.857L226.902 125.465C232.631 134.914 237.019 158.716 208.738 178.331C173.387 202.85 181.797 216.266 182.048 230.719C182.299 245.173 179.174 261.475 142.354 270.063C105.535 278.65 72.5608 292.855 59.8694 327.274C49.7162 354.809 32.18 366.906 25.3565 370.645C18.5331 374.384 -1.04622 382.623 -29.2349 376.096C-64.4706 367.938 -94.2745 388.13 -121.583 414.68C-148.892 441.229 -163.993 434.913 -175.719 426.747C-187.445 418.582 -193.83 404.056 -233.408 420.592Z" fill="url(#paint1_linear_6_164)"/>
<path d="M177.558 157.795C205.22 138.363 200.619 114.747 194.861 105.368L116.239 -40.8555L-387.089 237.875L-375.045 298.254C-370.389 308.243 -353.309 324.949 -322.238 311.856C-283.4 295.49 -276.936 309.906 -265.279 318.018C-253.621 326.13 -181.391 397.544 -144.115 389.744C-107.726 382.13 -89.6747 345.628 -54.8338 353.755C-26.961 360.257 -7.74836 352.103 -1.06268 348.4C5.62303 344.698 22.7765 332.714 32.4715 305.408C44.5902 271.276 76.9432 257.216 113.153 248.732C149.362 240.248 152.256 224.079 151.842 209.74C151.428 195.402 142.981 182.085 177.558 157.795Z" fill="black"/>
<path d="M177.558 157.795C205.22 138.363 200.619 114.747 194.861 105.368L116.239 -40.8555L-387.089 237.875L-375.045 298.254C-370.389 308.243 -353.309 324.949 -322.238 311.856C-283.4 295.49 -276.936 309.906 -265.279 318.018C-253.621 326.13 -181.391 397.544 -144.115 389.744C-107.726 382.13 -89.6747 345.628 -54.8338 353.755C-26.961 360.257 -7.74836 352.103 -1.06268 348.4C5.62303 344.698 22.7765 332.714 32.4715 305.408C44.5902 271.276 76.9432 257.216 113.153 248.732C149.362 240.248 152.256 224.079 151.842 209.74C151.428 195.402 142.981 182.085 177.558 157.795Z" fill="url(#paint2_linear_6_164)"/>
<path d="M141.131 43.2679C157.609 13.7506 143.207 -5.52387 133.947 -11.4714L-0.379147 -109.038L-332.704 360.632L-295.631 409.788C-287.099 416.764 -264.458 424.394 -242.157 399.106C-214.281 367.497 -202.198 377.675 -188.175 379.919C-174.151 382.163 -78.0721 415.12 -47.8832 391.905C-18.4119 369.242 -18.0052 328.523 16.908 320.712C44.8385 314.463 58.603 298.773 63.0173 292.535C67.4315 286.296 77.6779 268.051 74.5517 239.245C70.6439 203.236 93.6798 176.52 122.612 153.152C151.543 129.784 147.127 113.963 140.527 101.227C133.927 88.491 120.534 80.1646 141.131 43.2679Z" fill="black"/>
<path d="M141.131 43.2679C157.609 13.7506 143.207 -5.52387 133.947 -11.4714L-0.379147 -109.038L-332.704 360.632L-295.631 409.788C-287.099 416.764 -264.458 424.394 -242.157 399.106C-214.281 367.497 -202.198 377.675 -188.175 379.919C-174.151 382.163 -78.0721 415.12 -47.8832 391.905C-18.4119 369.242 -18.0052 328.523 16.908 320.712C44.8385 314.463 58.603 298.773 63.0173 292.535C67.4315 286.296 77.6779 268.051 74.5517 239.245C70.6439 203.236 93.6798 176.52 122.612 153.152C151.543 129.784 147.127 113.963 140.527 101.227C133.927 88.491 120.534 80.1646 141.131 43.2679Z" fill="url(#paint3_linear_6_164)"/>
<defs>
<linearGradient id="paint0_linear_6_164" x1="149.316" y1="87.6408" x2="-297.461" y2="585.142" gradientUnits="userSpaceOnUse">
<stop stop-color="#9FFF7D"/>
<stop offset="0.471875" stop-color="#69FB10"/>
<stop offset="1" stop-color="#94ED5E"/>
</linearGradient>
<linearGradient id="paint1_linear_6_164" x1="-421.166" y1="583.193" x2="145.083" y2="227.518" gradientUnits="userSpaceOnUse">
<stop stop-color="#41FA00"/>
<stop offset="0.505208" stop-color="#86FF72"/>
<stop offset="1" stop-color="#A4F057"/>
</linearGradient>
<linearGradient id="paint2_linear_6_164" x1="123.167" y1="-28.0494" x2="-304.964" y2="530.462" gradientUnits="userSpaceOnUse">
<stop stop-color="#7AFF9F"/>
<stop offset="0.505208" stop-color="#9EFFB8"/>
<stop offset="1" stop-color="#FFFFCC"/>
</linearGradient>
<linearGradient id="paint3_linear_6_164" x1="11.4231" y1="-100.511" x2="-131.655" y2="588.517" gradientUnits="userSpaceOnUse">
<stop stop-color="#91DCD1"/>
<stop offset="0.505208" stop-color="#B9E8DB"/>
<stop offset="1" stop-color="#DAF1DE"/>
</linearGradient>
</defs>
</svg>
